STARTFONT 2.1
FONT -FontForge-Monofett-Book-R-Normal--18-180-72-72-P-96-ISO10646-1
SIZE 18 72 72
FONTBOUNDINGBOX 12 21 0 -3
COMMENT "Generated by fontforge, http://fontforge.sourceforge.net"
COMMENT "Copyright (c) 2011 by vernon adams. All rights reserved."
STARTPROPERTIES 40
FOUNDRY "FontForge"
FAMILY_NAME "Monofett"
WEIGHT_NAME "Book"
SLANT "R"
SETWIDTH_NAME "Normal"
ADD_STYLE_NAME ""
PIXEL_SIZE 18
POINT_SIZE 180
RESOLUTION_X 72
RESOLUTION_Y 72
SPACING "P"
AVERAGE_WIDTH 96
CHARSET_REGISTRY "ISO10646"
CHARSET_ENCODING "1"
FONTNAME_REGISTRY ""
CHARSET_COLLECTIONS "ISO8859-2 ISO8859-9 ISO8859-4 ISO10646-1"
FONT_NAME "Monofett"
FACE_NAME "Monofett"
COPYRIGHT "Copyright (c) 2011 by vernon adams. All rights reserved."
FONT_VERSION "1.000"
FONT_ASCENT 14
FONT_DESCENT 4
UNDERLINE_POSITION -2
UNDERLINE_THICKNESS 1
X_HEIGHT 11
CAP_HEIGHT 11
RAW_ASCENT 799
RAW_DESCENT 200
NORM_SPACE 3
RELATIVE_WEIGHT 40
RELATIVE_SETWIDTH 50
SUPERSCRIPT_X 0
SUPERSCRIPT_Y 8
SUPERSCRIPT_SIZE 11
SUBSCRIPT_X 0
SUBSCRIPT_Y 2
SUBSCRIPT_SIZE 11
FIGURE_WIDTH 10
AVG_LOWERCASE_WIDTH 100
AVG_UPPERCASE_WIDTH 100
ENDPROPERTIES
CHARS 409
STARTCHAR uni000D
ENCODING 13
SWIDTH 144 0
DWIDTH 3 0
BBX 1 1 0 0
BITMAP
00
ENDCHAR
STARTCHAR space
ENCODING 32
SWIDTH 144 0
DWIDTH 3 0
BBX 1 1 0 0
BITMAP
00
ENDCHAR
STARTCHAR exclam
ENCODING 33
SWIDTH 424 0
DWIDTH 8 0
BBX 8 12 0 0
BITMAP
3C
6E
EF
EF
FF
FF
FF
EF
FF
FF
7E
3C
ENDCHAR
STARTCHAR quotedbl
ENCODING 34
SWIDTH 424 0
DWIDTH 8 0
BBX 8 12 0 0
BITMAP
3C
76
F7
FF
FF
FF
FF
FF
FF
FF
7E
3C
ENDCHAR
STARTCHAR numbersign
ENCODING 35
SWIDTH 482 0
DWIDTH 9 0
BBX 9 12 0 0
BITMAP
3E00
7F00
EB80
E380
EB80
EB80
C380
EF80
FF80
FF80
7F00
3E00
ENDCHAR
STARTCHAR dollar
ENCODING 36
SWIDTH 578 0
DWIDTH 10 0
BBX 10 12 0 0
BITMAP
3F80
73C0
EAC0
EBC0
E1C0
FAC0
EAC0
E1C0
FBC0
FFC0
7FC0
3F80
ENDCHAR
STARTCHAR percent
ENCODING 37
SWIDTH 578 0
DWIDTH 10 0
BBX 10 12 0 0
BITMAP
3F80
4DC0
FBC0
CBC0
FBC0
F440
F540
F6C0
FFC0
FFC0
7FC0
3F80
ENDCHAR
STARTCHAR ampersand
ENCODING 38
SWIDTH 578 0
DWIDTH 10 0
BBX 10 12 0 0
BITMAP
3F80
61C0
EFC0
EEC0
F0C0
EEC0
EEC0
F0C0
FFC0
FFC0
7FC0
3F80
ENDCHAR
STARTCHAR quotesingle
ENCODING 39
SWIDTH 424 0
DWIDTH 8 0
BBX 8 12 0 0
BITMAP
3C
6E
EF
FF
FF
FF
FF
FF
FF
FF
7E
3C
ENDCHAR
STARTCHAR parenleft
ENCODING 40
SWIDTH 483 0
DWIDTH 9 0
BBX 9 12 0 0
BITMAP
3E00
6300
EF80
EF80
EF80
EF80
EF80
EF80
E380
FF80
7F00
3E00
ENDCHAR
STARTCHAR parenright
ENCODING 41
SWIDTH 483 0
DWIDTH 9 0
BBX 9 12 0 0
BITMAP
3E00
6300
FB80
FB80
FB80
FB80
FB80
FB80
E380
FF80
7F00
3E00
ENDCHAR
STARTCHAR asterisk
ENCODING 42
SWIDTH 428 0
DWIDTH 8 0
BBX 8 12 0 0
BITMAP
3C
6E
C3
E7
EB
FF
FF
FF
FF
FF
7E
3C
ENDCHAR
STARTCHAR plus
ENCODING 43
SWIDTH 428 0
DWIDTH 8 0
BBX 8 12 0 0
BITMAP
3C
6E
C3
EF
EF
FF
FF
FF
FF
FF
7E
3C
ENDCHAR
STARTCHAR comma
ENCODING 44
SWIDTH 428 0
DWIDTH 8 0
BBX 8 12 0 0
BITMAP
3C
7E
FF
FF
FF
FF
FF
E7
FF
FF
7E
3C
ENDCHAR
STARTCHAR hyphen
ENCODING 45
SWIDTH 428 0
DWIDTH 8 0
BBX 8 12 0 0
BITMAP
3C
7E
FF
C3
FF
FF
FF
FF
FF
FF
7E
3C
ENDCHAR
STARTCHAR period
ENCODING 46
SWIDTH 428 0
DWIDTH 8 0
BBX 8 12 0 0
BITMAP
3C
7E
FF
FF
FF
FF
FF
EF
FF
FF
7E
3C
ENDCHAR
STARTCHAR slash
ENCODING 47
SWIDTH 428 0
DWIDTH 8 0
BBX 8 12 0 0
BITMAP
3C
76
F7
F7
EF
EF
EF
EF
FF
FF
7E
3C
ENDCHAR
STARTCHAR zero
ENCODING 48
SWIDTH 578 0
DWIDTH 10 0
BBX 10 12 0 0
BITMAP
3F80
60C0
EEC0
EEC0
EEC0
EEC0
EEC0
E0C0
FFC0
FFC0
7FC0
3F80
ENDCHAR
STARTCHAR one
ENCODING 49
SWIDTH 578 0
DWIDTH 10 0
BBX 10 12 0 0
BITMAP
3F80
73C0
FBC0
FBC0
FBC0
FBC0
FBC0
FBC0
FFC0
FFC0
7FC0
3F80
ENDCHAR
STARTCHAR two
ENCODING 50
SWIDTH 578 0
DWIDTH 10 0
BBX 10 12 0 0
BITMAP
3F80
60C0
FEC0
FEC0
E0C0
EFC0
EFC0
E0C0
FFC0
FFC0
7FC0
3F80
ENDCHAR
STARTCHAR three
ENCODING 51
SWIDTH 578 0
DWIDTH 10 0
BBX 10 12 0 0
BITMAP
3F80
60C0
FEC0
FEC0
F0C0
FEC0
DEC0
E0C0
FFC0
FFC0
7FC0
3F80
ENDCHAR
STARTCHAR four
ENCODING 52
SWIDTH 578 0
DWIDTH 10 0
BBX 10 12 0 0
BITMAP
3F80
6DC0
EDC0
EDC0
EDC0
E040
FDC0
FDC0
FFC0
FFC0
7FC0
3F80
ENDCHAR
STARTCHAR five
ENCODING 53
SWIDTH 578 0
DWIDTH 10 0
BBX 10 12 0 0
BITMAP
3F80
60C0
EFC0
EFC0
E0C0
FEC0
FEC0
E0C0
FFC0
FFC0
7FC0
3F80
ENDCHAR
STARTCHAR six
ENCODING 54
SWIDTH 578 0
DWIDTH 10 0
BBX 10 12 0 0
BITMAP
3F80
60C0
EFC0
EFC0
E6C0
EFC0
EEC0
E0C0
FFC0
FFC0
7FC0
3F80
ENDCHAR
STARTCHAR seven
ENCODING 55
SWIDTH 578 0
DWIDTH 10 0
BBX 10 12 0 0
BITMAP
3F80
71C0
FDC0
FDC0
FBC0
FBC0
FBC0
F7C0
FFC0
FFC0
7FC0
3F80
ENDCHAR
STARTCHAR eight
ENCODING 56
SWIDTH 578 0
DWIDTH 10 0
BBX 10 12 0 0
BITMAP
3F80
60C0
EEC0
EEC0
E0C0
EEC0
EEC0
E0C0
FFC0
FFC0
7FC0
3F80
ENDCHAR
STARTCHAR nine
ENCODING 57
SWIDTH 578 0
DWIDTH 10 0
BBX 10 12 0 0
BITMAP
3F80
60C0
EEC0
EEC0
E0C0
FEC0
FEC0
E0C0
FFC0
FFC0
7FC0
3F80
ENDCHAR
STARTCHAR colon
ENCODING 58
SWIDTH 428 0
DWIDTH 8 0
BBX 8 12 0 0
BITMAP
3C
7E
FF
FF
EF
FF
FF
EF
FF
FF
7E
3C
ENDCHAR
STARTCHAR semicolon
ENCODING 59
SWIDTH 428 0
DWIDTH 8 0
BBX 8 12 0 0
BITMAP
3C
7E
FF
FF
E7
FF
FF
E7
FF
FF
7E
3C
ENDCHAR
STARTCHAR less
ENCODING 60
SWIDTH 482 0
DWIDTH 9 0
BBX 9 13 0 1
BITMAP
1C00
7F00
FF00
FF80
F780
FF80
FF80
FF80
FF80
F780
FF80
7F00
3E00
ENDCHAR
STARTCHAR equal
ENCODING 61
SWIDTH 482 0
DWIDTH 9 0
BBX 9 13 0 1
BITMAP
1C00
7F00
FF00
FF80
FF80
FF80
FF80
E380
FF80
FF80
FF80
7F00
3E00
ENDCHAR
STARTCHAR greater
ENCODING 62
SWIDTH 482 0
DWIDTH 9 0
BBX 9 13 0 1
BITMAP
1C00
7F00
FF00
FF80
FF80
F780
FB80
FF80
F780
EF80
FF80
7F00
3E00
ENDCHAR
STARTCHAR question
ENCODING 63
SWIDTH 578 0
DWIDTH 10 0
BBX 10 12 0 0
BITMAP
3F80
60C0
FEC0
FEC0
F8C0
FBC0
FFC0
FBC0
FFC0
FFC0
7FC0
3F80
ENDCHAR
STARTCHAR at
ENCODING 64
SWIDTH 578 0
DWIDTH 10 0
BBX 10 12 0 0
BITMAP
3F80
46C0
DB40
FD40
FB40
ED40
F140
DE40
E3C0
FFC0
7FC0
3F80
ENDCHAR
STARTCHAR A
ENCODING 65
SWIDTH 578 0
DWIDTH 10 0
BBX 10 12 0 0
BITMAP
3F80
60C0
EEC0
EEC0
EEC0
EEC0
EEC0
EEC0
FFC0
FFC0
7FC0
3F80
ENDCHAR
STARTCHAR B
ENCODING 66
SWIDTH 578 0
DWIDTH 10 0
BBX 10 12 0 0
BITMAP
3F80
60C0
EEC0
EEC0
E1C0
EEC0
EEC0
E0C0
FFC0
FFC0
7FC0
3F80
ENDCHAR
STARTCHAR C
ENCODING 67
SWIDTH 578 0
DWIDTH 10 0
BBX 10 12 0 0
BITMAP
3F80
61C0
EFC0
EFC0
EFC0
EFC0
EFC0
E1C0
FFC0
FFC0
7FC0
3F80
ENDCHAR
STARTCHAR D
ENCODING 68
SWIDTH 578 0
DWIDTH 10 0
BBX 10 12 0 0
BITMAP
3F80
60C0
EEC0
EEC0
EEC0
EEC0
EEC0
E0C0
FFC0
FFC0
7FC0
3F80
ENDCHAR
STARTCHAR E
ENCODING 69
SWIDTH 578 0
DWIDTH 10 0
BBX 10 12 0 0
BITMAP
3F80
70C0
FFC0
FFC0
F1C0
FFC0
FFC0
F0C0
FFC0
FFC0
7FC0
3F80
ENDCHAR
STARTCHAR F
ENCODING 70
SWIDTH 578 0
DWIDTH 10 0
BBX 10 12 0 0
BITMAP
3F80
60C0
EFC0
EFC0
E1C0
EFC0
EFC0
EFC0
FFC0
FFC0
7FC0
3F80
ENDCHAR
STARTCHAR G
ENCODING 71
SWIDTH 578 0
DWIDTH 10 0
BBX 10 12 0 0
BITMAP
3F80
60C0
EFC0
EFC0
ECC0
EEC0
EEC0
E0C0
FFC0
FFC0
7FC0
3F80
ENDCHAR
STARTCHAR H
ENCODING 72
SWIDTH 578 0
DWIDTH 10 0
BBX 10 12 0 0
BITMAP
3F80
6EC0
EEC0
EEC0
E0C0
EEC0
EEC0
EEC0
FFC0
FFC0
7FC0
3F80
ENDCHAR
STARTCHAR I
ENCODING 73
SWIDTH 578 0
DWIDTH 10 0
BBX 10 12 0 0
BITMAP
3F80
60C0
FBC0
FBC0
FBC0
FBC0
FBC0
E0C0
FFC0
FFC0
7FC0
3F80
ENDCHAR
STARTCHAR J
ENCODING 74
SWIDTH 578 0
DWIDTH 10 0
BBX 10 12 0 0
BITMAP
3F80
7DC0
FDC0
FDC0
FDC0
FDC0
FDC0
F1C0
FFC0
FFC0
7FC0
3F80
ENDCHAR
STARTCHAR K
ENCODING 75
SWIDTH 578 0
DWIDTH 10 0
BBX 10 12 0 0
BITMAP
3F80
76C0
F5C0
FBC0
F3C0
F5C0
F4C0
F640
FFC0
FFC0
7FC0
3F80
ENDCHAR
STARTCHAR L
ENCODING 76
SWIDTH 578 0
DWIDTH 10 0
BBX 10 12 0 0
BITMAP
3F80
77C0
F7C0
F7C0
F7C0
F7C0
F7C0
F0C0
FFC0
FFC0
7FC0
3F80
ENDCHAR
STARTCHAR M
ENCODING 77
SWIDTH 578 0
DWIDTH 10 0
BBX 10 12 0 0
BITMAP
3F80
4440
DB40
DB40
DB40
DF40
DF40
DF40
FFC0
FFC0
7FC0
3F80
ENDCHAR
STARTCHAR N
ENCODING 78
SWIDTH 578 0
DWIDTH 10 0
BBX 10 12 0 0
BITMAP
3F80
60C0
EEC0
EEC0
EEC0
EEC0
EEC0
EEC0
FFC0
FFC0
7FC0
3F80
ENDCHAR
STARTCHAR O
ENCODING 79
SWIDTH 578 0
DWIDTH 10 0
BBX 10 12 0 0
BITMAP
3F80
60C0
EEC0
EEC0
EEC0
EEC0
EEC0
E0C0
FFC0
FFC0
7FC0
3F80
ENDCHAR
STARTCHAR P
ENCODING 80
SWIDTH 578 0
DWIDTH 10 0
BBX 10 12 0 0
BITMAP
3F80
60C0
EEC0
EEC0
EEC0
EFC0
EFC0
EFC0
FFC0
FFC0
7FC0
3F80
ENDCHAR
STARTCHAR Q
ENCODING 81
SWIDTH 578 0
DWIDTH 10 0
BBX 10 12 0 0
BITMAP
3F80
60C0
EEC0
EEC0
EEC0
EEC0
EAC0
E4C0
FDC0
FFC0
7FC0
3F80
ENDCHAR
STARTCHAR R
ENCODING 82
SWIDTH 578 0
DWIDTH 10 0
BBX 10 12 0 0
BITMAP
3F80
60C0
EEC0
EEC0
E1C0
EEC0
EEC0
EEC0
FFC0
FFC0
7FC0
3F80
ENDCHAR
STARTCHAR S
ENCODING 83
SWIDTH 578 0
DWIDTH 10 0
BBX 10 12 0 0
BITMAP
3F80
60C0
EFC0
EFC0
F0C0
FEC0
FEC0
E0C0
FFC0
FFC0
7FC0
3F80
ENDCHAR
STARTCHAR T
ENCODING 84
SWIDTH 578 0
DWIDTH 10 0
BBX 10 12 0 0
BITMAP
3F80
60C0
FBC0
FBC0
FBC0
FBC0
FBC0
FBC0
FFC0
FFC0
7FC0
3F80
ENDCHAR
STARTCHAR U
ENCODING 85
SWIDTH 578 0
DWIDTH 10 0
BBX 10 12 0 0
BITMAP
3F80
6EC0
EEC0
EEC0
EEC0
EEC0
EEC0
E0C0
FFC0
FFC0
7FC0
3F80
ENDCHAR
STARTCHAR V
ENCODING 86
SWIDTH 578 0
DWIDTH 10 0
BBX 10 12 0 0
BITMAP
3F80
6EC0
EEC0
EEC0
F5C0
F5C0
F5C0
F9C0
FFC0
FFC0
7FC0
3F80
ENDCHAR
STARTCHAR W
ENCODING 87
SWIDTH 578 0
DWIDTH 10 0
BBX 10 12 0 0
BITMAP
3F80
5B40
DB40
DB40
D740
D5C0
F5C0
E4C0
FFC0
FFC0
7FC0
3F80
ENDCHAR
STARTCHAR X
ENCODING 88
SWIDTH 578 0
DWIDTH 10 0
BBX 10 12 0 0
BITMAP
3F80
6EC0
F6C0
F5C0
FBC0
F5C0
F6C0
EEC0
FFC0
FFC0
7FC0
3F80
ENDCHAR
STARTCHAR Y
ENCODING 89
SWIDTH 578 0
DWIDTH 10 0
BBX 10 12 0 0
BITMAP
3F80
6EC0
F4C0
F5C0
FDC0
FBC0
FBC0
FBC0
FFC0
FFC0
7FC0
3F80
ENDCHAR
STARTCHAR Z
ENCODING 90
SWIDTH 578 0
DWIDTH 10 0
BBX 10 12 0 0
BITMAP
3F80
60C0
FDC0
FBC0
FBC0
F7C0
F7C0
E8C0
FFC0
FFC0
7FC0
3F80
ENDCHAR
STARTCHAR bracketleft
ENCODING 91
SWIDTH 484 0
DWIDTH 9 0
BBX 9 12 0 0
BITMAP
3E00
7700
F780
F780
F780
F780
F780
F780
F780
FF80
7F00
3E00
ENDCHAR
STARTCHAR backslash
ENCODING 92
SWIDTH 516 0
DWIDTH 9 0
BBX 9 12 0 0
BITMAP
3F00
7780
F780
F780
F780
FF80
FB80
FB80
FF80
FF80
7F80
3F00
ENDCHAR
STARTCHAR bracketright
ENCODING 93
SWIDTH 484 0
DWIDTH 9 0
BBX 9 12 0 0
BITMAP
3E00
7700
F780
F780
F780
F780
F780
F780
F780
FF80
7F00
3E00
ENDCHAR
STARTCHAR asciicircum
ENCODING 94
SWIDTH 355 0
DWIDTH 6 0
BBX 6 7 0 4
BITMAP
30
78
6C
DC
F4
FC
6C
ENDCHAR
STARTCHAR underscore
ENCODING 95
SWIDTH 428 0
DWIDTH 8 0
BBX 8 12 0 0
BITMAP
3C
7E
FF
FF
FF
FF
FF
FF
C3
FF
7E
3C
ENDCHAR
STARTCHAR grave
ENCODING 96
SWIDTH 308 0
DWIDTH 6 0
BBX 6 6 0 0
BITMAP
70
D8
D8
68
7C
38
ENDCHAR
STARTCHAR a
ENCODING 97
SWIDTH 578 0
DWIDTH 10 0
BBX 10 12 0 0
BITMAP
3F80
60C0
FEC0
FEC0
E0C0
EEC0
EEC0
E0C0
FFC0
FFC0
7FC0
3F80
ENDCHAR
STARTCHAR b
ENCODING 98
SWIDTH 578 0
DWIDTH 10 0
BBX 10 12 0 0
BITMAP
3F80
60C0
EEC0
EEC0
E1C0
EEC0
EEC0
E0C0
FFC0
FFC0
7FC0
3F80
ENDCHAR
STARTCHAR c
ENCODING 99
SWIDTH 578 0
DWIDTH 10 0
BBX 10 12 0 0
BITMAP
3F80
61C0
EFC0
EFC0
EFC0
EFC0
EFC0
E1C0
FFC0
FFC0
7FC0
3F80
ENDCHAR
STARTCHAR d
ENCODING 100
SWIDTH 578 0
DWIDTH 10 0
BBX 10 12 0 0
BITMAP
3F80
60C0
EEC0
EEC0
EEC0
EEC0
EEC0
E0C0
FFC0
FFC0
7FC0
3F80
ENDCHAR
STARTCHAR e
ENCODING 101
SWIDTH 578 0
DWIDTH 10 0
BBX 10 12 0 0
BITMAP
3F80
60C0
EEC0
E0C0
EFC0
EFC0
EFC0
E1C0
FFC0
FFC0
7FC0
3F80
ENDCHAR
STARTCHAR f
ENCODING 102
SWIDTH 578 0
DWIDTH 10 0
BBX 10 12 0 0
BITMAP
3F80
60C0
EFC0
EFC0
E1C0
EFC0
EFC0
EFC0
FFC0
FFC0
7FC0
3F80
ENDCHAR
STARTCHAR g
ENCODING 103
SWIDTH 578 0
DWIDTH 10 0
BBX 10 12 0 0
BITMAP
3F80
60C0
EFC0
EFC0
ECC0
EEC0
EEC0
E0C0
FFC0
FFC0
7FC0
3F80
ENDCHAR
STARTCHAR h
ENCODING 104
SWIDTH 578 0
DWIDTH 10 0
BBX 10 12 0 0
BITMAP
3F80
6EC0
EEC0
EEC0
E0C0
EEC0
EEC0
EEC0
FFC0
FFC0
7FC0
3F80
ENDCHAR
STARTCHAR i
ENCODING 105
SWIDTH 578 0
DWIDTH 10 0
BBX 10 12 0 0
BITMAP
3F80
60C0
FBC0
FBC0
FBC0
FBC0
FBC0
E0C0
FFC0
FFC0
7FC0
3F80
ENDCHAR
STARTCHAR j
ENCODING 106
SWIDTH 578 0
DWIDTH 10 0
BBX 10 12 0 0
BITMAP
3F80
7DC0
FDC0
FDC0
FDC0
FDC0
FDC0
F1C0
FFC0
FFC0
7FC0
3F80
ENDCHAR
STARTCHAR k
ENCODING 107
SWIDTH 578 0
DWIDTH 10 0
BBX 10 12 0 0
BITMAP
3F80
76C0
F5C0
FBC0
F3C0
F5C0
F4C0
F640
FFC0
FFC0
7FC0
3F80
ENDCHAR
STARTCHAR l
ENCODING 108
SWIDTH 578 0
DWIDTH 10 0
BBX 10 12 0 0
BITMAP
3F80
77C0
F7C0
F7C0
F7C0
F7C0
F7C0
F0C0
FFC0
FFC0
7FC0
3F80
ENDCHAR
STARTCHAR m
ENCODING 109
SWIDTH 578 0
DWIDTH 10 0
BBX 10 12 0 0
BITMAP
3F80
4440
DB40
DB40
DB40
DF40
DF40
DF40
FFC0
FFC0
7FC0
3F80
ENDCHAR
STARTCHAR n
ENCODING 110
SWIDTH 578 0
DWIDTH 10 0
BBX 10 12 0 0
BITMAP
3F80
60C0
EEC0
EEC0
EEC0
EEC0
EEC0
EEC0
FFC0
FFC0
7FC0
3F80
ENDCHAR
STARTCHAR o
ENCODING 111
SWIDTH 578 0
DWIDTH 10 0
BBX 10 12 0 0
BITMAP
3F80
60C0
EEC0
EEC0
EEC0
EEC0
EEC0
E0C0
FFC0
FFC0
7FC0
3F80
ENDCHAR
STARTCHAR p
ENCODING 112
SWIDTH 578 0
DWIDTH 10 0
BBX 10 12 0 0
BITMAP
3F80
60C0
EEC0
EEC0
EEC0
EFC0
EFC0
EFC0
FFC0
FFC0
7FC0
3F80
ENDCHAR
STARTCHAR q
ENCODING 113
SWIDTH 578 0
DWIDTH 10 0
BBX 10 12 0 0
BITMAP
3F80
60C0
EEC0
EEC0
EEC0
EEC0
EAC0
E4C0
FDC0
FFC0
7FC0
3F80
ENDCHAR
STARTCHAR r
ENCODING 114
SWIDTH 578 0
DWIDTH 10 0
BBX 10 12 0 0
BITMAP
3F80
60C0
EEC0
EEC0
E1C0
EEC0
EEC0
EEC0
FFC0
FFC0
7FC0
3F80
ENDCHAR
STARTCHAR s
ENCODING 115
SWIDTH 578 0
DWIDTH 10 0
BBX 10 12 0 0
BITMAP
3F80
60C0
EFC0
EFC0
F0C0
FEC0
FEC0
E0C0
FFC0
FFC0
7FC0
3F80
ENDCHAR
STARTCHAR t
ENCODING 116
SWIDTH 578 0
DWIDTH 10 0
BBX 10 12 0 0
BITMAP
3F80
60C0
FBC0
FBC0
FBC0
FBC0
FBC0
FBC0
FFC0
FFC0
7FC0
3F80
ENDCHAR
STARTCHAR u
ENCODING 117
SWIDTH 578 0
DWIDTH 10 0
BBX 10 12 0 0
BITMAP
3F80
6EC0
EEC0
EEC0
EEC0
EEC0
EEC0
E0C0
FFC0
FFC0
7FC0
3F80
ENDCHAR
STARTCHAR v
ENCODING 118
SWIDTH 578 0
DWIDTH 10 0
BBX 10 12 0 0
BITMAP
3F80
6EC0
EEC0
EEC0
F5C0
F5C0
F5C0
F9C0
FFC0
FFC0
7FC0
3F80
ENDCHAR
STARTCHAR w
ENCODING 119
SWIDTH 578 0
DWIDTH 10 0
BBX 10 12 0 0
BITMAP
3F80
5B40
DB40
DB40
D740
D5C0
F5C0
E4C0
FFC0
FFC0
7FC0
3F80
ENDCHAR
STARTCHAR x
ENCODING 120
SWIDTH 578 0
DWIDTH 10 0
BBX 10 12 0 0
BITMAP
3F80
6EC0
F6C0
F5C0
FBC0
F5C0
F6C0
EEC0
FFC0
FFC0
7FC0
3F80
ENDCHAR
STARTCHAR y
ENCODING 121
SWIDTH 578 0
DWIDTH 10 0
BBX 10 12 0 0
BITMAP
3F80
6EC0
F4C0
F5C0
FDC0
FBC0
FBC0
FBC0
FFC0
FFC0
7FC0
3F80
ENDCHAR
STARTCHAR z
ENCODING 122
SWIDTH 578 0
DWIDTH 10 0
BBX 10 12 0 0
BITMAP
3F80
60C0
FDC0
FBC0
FBC0
F7C0
F7C0
E8C0
FFC0
FFC0
7FC0
3F80
ENDCHAR
STARTCHAR braceleft
ENCODING 123
SWIDTH 484 0
DWIDTH 9 0
BBX 9 12 0 0
BITMAP
3E00
6700
EF80
EF80
8F80
EF80
EF80
EF80
F380
FF80
7F00
3E00
ENDCHAR
STARTCHAR bar
ENCODING 124
SWIDTH 484 0
DWIDTH 9 0
BBX 9 12 0 0
BITMAP
3600
7700
F780
F780
F780
F780
F780
F780
F780
FF80
7F00
3E00
ENDCHAR
STARTCHAR braceright
ENCODING 125
SWIDTH 484 0
DWIDTH 9 0
BBX 9 12 0 0
BITMAP
3E00
7700
FB80
FB80
F980
FB80
FB80
FB80
E780
FF80
7F00
3E00
ENDCHAR
STARTCHAR asciitilde
ENCODING 126
SWIDTH 578 0
DWIDTH 10 0
BBX 10 12 0 0
BITMAP
3F80
7FC0
FFC0
E2C0
FFC0
FFC0
FFC0
FFC0
FFC0
FFC0
7FC0
3F80
ENDCHAR
STARTCHAR uni00A0
ENCODING 160
SWIDTH 151 0
DWIDTH 3 0
BBX 1 1 0 0
BITMAP
00
ENDCHAR
STARTCHAR exclamdown
ENCODING 161
SWIDTH 424 0
DWIDTH 8 0
BBX 8 12 0 0
BITMAP
3C
6E
FF
FF
FF
FF
FF
FF
FF
FF
7E
3C
ENDCHAR
STARTCHAR cent
ENCODING 162
SWIDTH 578 0
DWIDTH 10 0
BBX 10 12 0 0
BITMAP
3F80
7BC0
E1C0
EBC0
EBC0
EBC0
EBC0
F1C0
FBC0
FFC0
7FC0
3F80
ENDCHAR
STARTCHAR sterling
ENCODING 163
SWIDTH 578 0
DWIDTH 10 0
BBX 10 12 0 0
BITMAP
3F80
71C0
F7C0
F7C0
E1C0
F7C0
F7C0
F1C0
FFC0
FFC0
7FC0
3F80
ENDCHAR
STARTCHAR currency
ENCODING 164
SWIDTH 578 0
DWIDTH 10 0
BBX 10 12 0 0
BITMAP
3F80
69C0
EEC0
EEC0
EEC0
F0C0
EEC0
FFC0
FFC0
FFC0
7FC0
3F80
ENDCHAR
STARTCHAR yen
ENCODING 165
SWIDTH 578 0
DWIDTH 10 0
BBX 10 12 0 0
BITMAP
3F80
6EC0
EDC0
F5C0
F7C0
F9C0
FBC0
FBC0
FFC0
FFC0
7FC0
3F80
ENDCHAR
STARTCHAR brokenbar
ENCODING 166
SWIDTH 484 0
DWIDTH 9 0
BBX 9 12 0 0
BITMAP
3E00
7700
F780
F780
FF80
F780
F780
F780
FF80
FF80
7F00
3E00
ENDCHAR
STARTCHAR section
ENCODING 167
SWIDTH 578 0
DWIDTH 10 0
BBX 10 12 0 0
BITMAP
3F80
60C0
EFC0
E1C0
F5C0
F1C0
FEC0
FEC0
E1C0
FFC0
7FC0
3F80
ENDCHAR
STARTCHAR dieresis
ENCODING 168
SWIDTH 388 0
DWIDTH 7 0
BBX 7 5 0 0
BITMAP
7C
FE
D6
FE
7C
ENDCHAR
STARTCHAR copyright
ENCODING 169
SWIDTH 578 0
DWIDTH 10 0
BBX 10 12 0 0
BITMAP
3F80
6EC0
D140
BFC0
BFC0
BFC0
FFC0
DF40
E1C0
FFC0
7FC0
3F80
ENDCHAR
STARTCHAR ordfeminine
ENCODING 170
SWIDTH 578 0
DWIDTH 10 0
BBX 10 12 0 0
BITMAP
3F80
70C0
FEC0
F2C0
EEC0
EEC0
F1C0
FFC0
FFC0
FFC0
7FC0
3F80
ENDCHAR
STARTCHAR guillemotleft
ENCODING 171
SWIDTH 578 0
DWIDTH 10 0
BBX 10 12 0 0
BITMAP
3F80
7FC0
F5C0
FFC0
EBC0
FFC0
FFC0
F5C0
FFC0
FFC0
7FC0
3F80
ENDCHAR
STARTCHAR uni00AD
ENCODING 173
SWIDTH 428 0
DWIDTH 8 0
BBX 8 12 0 0
BITMAP
3C
7E
FF
C3
FF
FF
FF
FF
FF
FF
7E
3C
ENDCHAR
STARTCHAR registered
ENCODING 174
SWIDTH 578 0
DWIDTH 10 0
BBX 10 12 0 0
BITMAP
3F80
6EC0
D140
BFC0
BDC0
BFC0
FFC0
DF40
E1C0
FFC0
7FC0
3F80
ENDCHAR
STARTCHAR macron
ENCODING 175
SWIDTH 428 0
DWIDTH 8 0
BBX 8 5 0 0
BITMAP
7E
FE
C7
FF
7E
ENDCHAR
STARTCHAR degree
ENCODING 176
SWIDTH 428 0
DWIDTH 8 0
BBX 8 12 0 0
BITMAP
3C
46
DF
E7
FF
FF
FF
FF
FF
FF
7E
3C
ENDCHAR
STARTCHAR plusminus
ENCODING 177
SWIDTH 428 0
DWIDTH 8 0
BBX 8 12 0 0
BITMAP
3C
6E
C3
EF
EF
FF
C3
FF
FF
FF
7E
3C
ENDCHAR
STARTCHAR uni00B2
ENCODING 178
SWIDTH 578 0
DWIDTH 10 0
BBX 10 12 0 0
BITMAP
3F80
71C0
FDC0
F3C0
EFC0
FFC0
FFC0
FFC0
FFC0
FFC0
7FC0
3F80
ENDCHAR
STARTCHAR uni00B3
ENCODING 179
SWIDTH 578 0
DWIDTH 10 0
BBX 10 12 0 0
BITMAP
3F80
70C0
FEC0
FFC0
F4C0
FFC0
FFC0
FFC0
FFC0
FFC0
7FC0
3F80
ENDCHAR
STARTCHAR acute
ENCODING 180
SWIDTH 308 0
DWIDTH 6 0
BBX 6 6 0 0
BITMAP
78
6C
D8
D8
F0
70
ENDCHAR
STARTCHAR uni00B5
ENCODING 181
SWIDTH 578 0
DWIDTH 10 0
BBX 10 12 0 0
BITMAP
3F80
7EC0
FEC0
FEC0
FEC0
FEC0
FEC0
E0C0
FFC0
FFC0
7FC0
3F80
ENDCHAR
STARTCHAR paragraph
ENCODING 182
SWIDTH 578 0
DWIDTH 10 0
BBX 10 12 0 0
BITMAP
3F80
60C0
E2C0
E2C0
E2C0
FEC0
FEC0
FEC0
FFC0
FFC0
7FC0
3F80
ENDCHAR
STARTCHAR periodcentered
ENCODING 183
SWIDTH 428 0
DWIDTH 8 0
BBX 8 12 0 0
BITMAP
3C
7E
FF
EF
FF
FF
FF
FF
FF
FF
7E
3C
ENDCHAR
STARTCHAR cedilla
ENCODING 184
SWIDTH 101 0
DWIDTH 2 0
BBX 2 3 0 -3
BITMAP
C0
80
C0
ENDCHAR
STARTCHAR uni00B9
ENCODING 185
SWIDTH 578 0
DWIDTH 10 0
BBX 10 12 0 0
BITMAP
3F80
73C0
FBC0
FBC0
FBC0
FFC0
FFC0
FFC0
FFC0
FFC0
7FC0
3F80
ENDCHAR
STARTCHAR ordmasculine
ENCODING 186
SWIDTH 578 0
DWIDTH 10 0
BBX 10 12 0 0
BITMAP
3F80
60C0
EEC0
EEC0
EEC0
EEC0
F0C0
FFC0
FFC0
FFC0
7FC0
3F80
ENDCHAR
STARTCHAR guillemotright
ENCODING 187
SWIDTH 578 0
DWIDTH 10 0
BBX 10 12 0 0
BITMAP
3F80
7FC0
EBC0
F5C0
FAC0
FAC0
F5C0
EBC0
FFC0
FFC0
7FC0
3F80
ENDCHAR
STARTCHAR onequarter
ENCODING 188
SWIDTH 578 0
DWIDTH 10 0
BBX 10 12 0 0
BITMAP
7F80
9BC0
DBC0
D7C0
D540
F540
F540
EE40
FF40
FFC0
7FC0
3F80
ENDCHAR
STARTCHAR onehalf
ENCODING 189
SWIDTH 578 0
DWIDTH 10 0
BBX 10 12 0 0
BITMAP
7F80
9BC0
DBC0
D440
D5C0
F640
F5C0
EC40
FFC0
FFC0
7FC0
3F80
ENDCHAR
STARTCHAR threequarters
ENCODING 190
SWIDTH 578 0
DWIDTH 10 0
BBX 10 12 0 0
BITMAP
7F80
9BC0
DBC0
D440
D5C0
F640
F7C0
EC40
FFC0
FFC0
7FC0
3F80
ENDCHAR
STARTCHAR questiondown
ENCODING 191
SWIDTH 578 0
DWIDTH 10 0
BBX 10 12 0 0
BITMAP
3F80
7BC0
FFC0
FFC0
EFC0
EFC0
EEC0
F0C0
FFC0
FFC0
7FC0
3F80
ENDCHAR
STARTCHAR Agrave
ENCODING 192
SWIDTH 578 0
DWIDTH 10 0
BBX 10 17 0 0
BITMAP
3C00
3600
3600
3E00
1E00
3F80
60C0
EEC0
EEC0
EEC0
EEC0
EEC0
EEC0
FFC0
FFC0
7FC0
3F80
ENDCHAR
STARTCHAR Aacute
ENCODING 193
SWIDTH 578 0
DWIDTH 10 0
BBX 10 17 0 0
BITMAP
0F00
0D80
0F80
1B00
1F00
3F80
60C0
EEC0
EEC0
EEC0
EEC0
EEC0
EEC0
FFC0
FFC0
7FC0
3F80
ENDCHAR
STARTCHAR Acircumflex
ENCODING 194
SWIDTH 578 0
DWIDTH 10 0
BBX 10 17 0 0
BITMAP
0E00
1B00
1F00
3580
3F80
3F80
60C0
EEC0
EEC0
EEC0
EEC0
EEC0
EEC0
FFC0
FFC0
7FC0
3F80
ENDCHAR
STARTCHAR Atilde
ENCODING 195
SWIDTH 578 0
DWIDTH 10 0
BBX 10 18 0 0
BITMAP
0E00
3F80
3F80
3F80
2980
3F80
3F80
60C0
EEC0
EEC0
EEC0
EEC0
EEC0
EEC0
FFC0
FFC0
7FC0
3F80
ENDCHAR
STARTCHAR Adieresis
ENCODING 196
SWIDTH 578 0
DWIDTH 10 0
BBX 10 16 0 0
BITMAP
1F00
3F80
3580
3F80
3F80
60C0
EEC0
EEC0
EEC0
EEC0
EEC0
EEC0
FFC0
FFC0
7FC0
3F80
ENDCHAR
STARTCHAR Aring
ENCODING 197
SWIDTH 578 0
DWIDTH 10 0
BBX 10 18 0 0
BITMAP
0400
1F00
3180
3580
3180
3F00
3F80
60C0
EEC0
EEC0
EEC0
EEC0
EEC0
EEC0
FFC0
FFC0
7FC0
3F80
ENDCHAR
STARTCHAR AE
ENCODING 198
SWIDTH 578 0
DWIDTH 10 0
BBX 10 12 0 0
BITMAP
3F80
60C0
EBC0
EBC0
E8C0
DBC0
C3C0
D8C0
FFC0
FFC0
7FC0
3F80
ENDCHAR
STARTCHAR Ccedilla
ENCODING 199
SWIDTH 578 0
DWIDTH 10 0
BBX 10 12 0 0
BITMAP
3F80
61C0
EFC0
EFC0
EFC0
EFC0
EFC0
E1C0
FBC0
F7C0
73C0
3F80
ENDCHAR
STARTCHAR Egrave
ENCODING 200
SWIDTH 578 0
DWIDTH 10 0
BBX 10 17 0 0
BITMAP
1C00
3600
3600
1E00
1E00
3F80
70C0
FFC0
FFC0
F1C0
FFC0
FFC0
F0C0
FFC0
FFC0
7FC0
3F80
ENDCHAR
STARTCHAR Eacute
ENCODING 201
SWIDTH 578 0
DWIDTH 10 0
BBX 10 17 0 0
BITMAP
0700
0D80
0D80
0B00
1F00
3F80
70C0
FFC0
FFC0
F1C0
FFC0
FFC0
F0C0
FFC0
FFC0
7FC0
3F80
ENDCHAR
STARTCHAR Ecircumflex
ENCODING 202
SWIDTH 578 0
DWIDTH 10 0
BBX 10 17 0 0
BITMAP
0E00
1B00
1F00
1580
3F80
3F80
70C0
FFC0
FFC0
F1C0
FFC0
FFC0
F0C0
FFC0
FFC0
7FC0
3F80
ENDCHAR
STARTCHAR Edieresis
ENCODING 203
SWIDTH 578 0
DWIDTH 10 0
BBX 10 16 0 0
BITMAP
1F00
3F80
3580
3F80
3F80
70C0
FFC0
FFC0
F1C0
FFC0
FFC0
F0C0
FFC0
FFC0
7FC0
3F80
ENDCHAR
STARTCHAR Igrave
ENCODING 204
SWIDTH 578 0
DWIDTH 10 0
BBX 10 17 0 0
BITMAP
1C00
3600
3600
1E00
1F00
3F80
60C0
FBC0
FBC0
FBC0
FBC0
FBC0
E0C0
FFC0
FFC0
7FC0
3F80
ENDCHAR
STARTCHAR Iacute
ENCODING 205
SWIDTH 578 0
DWIDTH 10 0
BBX 10 17 0 0
BITMAP
0700
0D80
0D80
0B00
1F00
3F80
60C0
FBC0
FBC0
FBC0
FBC0
FBC0
E0C0
FFC0
FFC0
7FC0
3F80
ENDCHAR
STARTCHAR Icircumflex
ENCODING 206
SWIDTH 578 0
DWIDTH 10 0
BBX 10 17 0 0
BITMAP
0F00
1B00
1D00
1580
3F80
3F80
60C0
FBC0
FBC0
FBC0
FBC0
FBC0
E0C0
FFC0
FFC0
7FC0
3F80
ENDCHAR
STARTCHAR Idieresis
ENCODING 207
SWIDTH 578 0
DWIDTH 10 0
BBX 10 16 0 0
BITMAP
1F00
3F80
3580
3F80
3F80
60C0
FBC0
FBC0
FBC0
FBC0
FBC0
E0C0
FFC0
FFC0
7FC0
3F80
ENDCHAR
STARTCHAR Eth
ENCODING 208
SWIDTH 578 0
DWIDTH 10 0
BBX 10 12 0 0
BITMAP
3F80
60C0
EEC0
EEC0
C6C0
EEC0
EEC0
E0C0
FFC0
FFC0
7FC0
3F80
ENDCHAR
STARTCHAR Ntilde
ENCODING 209
SWIDTH 578 0
DWIDTH 10 0
BBX 10 18 0 0
BITMAP
0E00
3F00
3F80
7F80
2980
3F80
3F80
60C0
EEC0
EEC0
EEC0
EEC0
EEC0
EEC0
FFC0
FFC0
7FC0
3F80
ENDCHAR
STARTCHAR Ograve
ENCODING 210
SWIDTH 578 0
DWIDTH 10 0
BBX 10 17 0 0
BITMAP
3C00
3600
3600
1E00
1E00
3F80
60C0
EEC0
EEC0
EEC0
EEC0
EEC0
E0C0
FFC0
FFC0
7FC0
3F80
ENDCHAR
STARTCHAR Oacute
ENCODING 211
SWIDTH 578 0
DWIDTH 10 0
BBX 10 17 0 0
BITMAP
0700
0D80
0D80
1B00
1F00
3F80
60C0
EEC0
EEC0
EEC0
EEC0
EEC0
E0C0
FFC0
FFC0
7FC0
3F80
ENDCHAR
STARTCHAR Ocircumflex
ENCODING 212
SWIDTH 578 0
DWIDTH 10 0
BBX 10 17 0 0
BITMAP
0E00
1B00
1F00
3580
3F80
3F80
60C0
EEC0
EEC0
EEC0
EEC0
EEC0
E0C0
FFC0
FFC0
7FC0
3F80
ENDCHAR
STARTCHAR Otilde
ENCODING 213
SWIDTH 578 0
DWIDTH 10 0
BBX 10 18 0 0
BITMAP
0E00
3F80
3F80
3FC0
3980
3F80
3F80
60C0
EEC0
EEC0
EEC0
EEC0
EEC0
E0C0
FFC0
FFC0
7FC0
3F80
ENDCHAR
STARTCHAR Odieresis
ENCODING 214
SWIDTH 578 0
DWIDTH 10 0
BBX 10 16 0 0
BITMAP
1F00
3F80
3580
3F80
3F80
60C0
EEC0
EEC0
EEC0
EEC0
EEC0
E0C0
FFC0
FFC0
7FC0
3F80
ENDCHAR
STARTCHAR multiply
ENCODING 215
SWIDTH 578 0
DWIDTH 10 0
BBX 10 12 0 0
BITMAP
3F80
7FC0
FFC0
F5C0
FBC0
F5C0
FFC0
FFC0
FFC0
FFC0
7FC0
3F80
ENDCHAR
STARTCHAR Oslash
ENCODING 216
SWIDTH 578 0
DWIDTH 10 0
BBX 10 12 0 0
BITMAP
3F80
62C0
EDC0
EEC0
EAC0
F6C0
EEC0
E0C0
FFC0
FFC0
7FC0
3F80
ENDCHAR
STARTCHAR Ugrave
ENCODING 217
SWIDTH 578 0
DWIDTH 10 0
BBX 10 17 0 0
BITMAP
1C00
3600
3600
1E00
1E00
3F80
6EC0
EEC0
EEC0
EEC0
EEC0
EEC0
E0C0
FFC0
FFC0
7FC0
3F80
ENDCHAR
STARTCHAR Uacute
ENCODING 218
SWIDTH 578 0
DWIDTH 10 0
BBX 10 17 0 0
BITMAP
0700
0D80
0D80
0B00
1F00
3F80
6EC0
EEC0
EEC0
EEC0
EEC0
EEC0
E0C0
FFC0
FFC0
7FC0
3F80
ENDCHAR
STARTCHAR Ucircumflex
ENCODING 219
SWIDTH 578 0
DWIDTH 10 0
BBX 10 17 0 0
BITMAP
0E00
1B00
1F00
1580
3F80
3F80
6EC0
EEC0
EEC0
EEC0
EEC0
EEC0
E0C0
FFC0
FFC0
7FC0
3F80
ENDCHAR
STARTCHAR Udieresis
ENCODING 220
SWIDTH 578 0
DWIDTH 10 0
BBX 10 16 0 0
BITMAP
1F00
3F80
3580
3F80
3F80
6EC0
EEC0
EEC0
EEC0
EEC0
EEC0
E0C0
FFC0
FFC0
7FC0
3F80
ENDCHAR
STARTCHAR Yacute
ENCODING 221
SWIDTH 578 0
DWIDTH 10 0
BBX 10 17 0 0
BITMAP
0700
0D80
0D80
0B00
1F00
3F80
6EC0
F4C0
F5C0
FDC0
FBC0
FBC0
FBC0
FFC0
FFC0
7FC0
3F80
ENDCHAR
STARTCHAR Thorn
ENCODING 222
SWIDTH 578 0
DWIDTH 10 0
BBX 10 12 0 0
BITMAP
3F80
6FC0
E0C0
EEC0
EEC0
E0C0
EFC0
EFC0
FFC0
FFC0
7FC0
3F80
ENDCHAR
STARTCHAR germandbls
ENCODING 223
SWIDTH 578 0
DWIDTH 10 0
BBX 10 12 0 0
BITMAP
3F80
60C0
EEC0
EFC0
ECC0
EEC0
EEC0
E8C0
FFC0
FFC0
7FC0
3F80
ENDCHAR
STARTCHAR agrave
ENCODING 224
SWIDTH 578 0
DWIDTH 10 0
BBX 10 17 0 0
BITMAP
3C00
3600
3600
1E00
1E00
3F80
60C0
FEC0
FEC0
E0C0
EEC0
EEC0
E0C0
FFC0
FFC0
7FC0
3F80
ENDCHAR
STARTCHAR aacute
ENCODING 225
SWIDTH 578 0
DWIDTH 10 0
BBX 10 17 0 0
BITMAP
0700
0D80
0D80
0B00
1F00
3F80
60C0
FEC0
FEC0
E0C0
EEC0
EEC0
E0C0
FFC0
FFC0
7FC0
3F80
ENDCHAR
STARTCHAR acircumflex
ENCODING 226
SWIDTH 578 0
DWIDTH 10 0
BBX 10 17 0 0
BITMAP
0E00
1B00
1F00
1580
3F80
3F80
60C0
FEC0
FEC0
E0C0
EEC0
EEC0
E0C0
FFC0
FFC0
7FC0
3F80
ENDCHAR
STARTCHAR atilde
ENCODING 227
SWIDTH 578 0
DWIDTH 10 0
BBX 10 18 0 0
BITMAP
0E00
1F80
3F80
3FC0
3980
3F80
3F80
60C0
FEC0
FEC0
E0C0
EEC0
EEC0
E0C0
FFC0
FFC0
7FC0
3F80
ENDCHAR
STARTCHAR adieresis
ENCODING 228
SWIDTH 578 0
DWIDTH 10 0
BBX 10 16 0 0
BITMAP
1F00
3F80
3580
3F80
3F80
60C0
FEC0
FEC0
E0C0
EEC0
EEC0
E0C0
FFC0
FFC0
7FC0
3F80
ENDCHAR
STARTCHAR aring
ENCODING 229
SWIDTH 578 0
DWIDTH 10 0
BBX 10 18 0 0
BITMAP
0400
1F00
3180
3580
3180
1F00
3F80
60C0
FEC0
FEC0
E0C0
EEC0
EEC0
E0C0
FFC0
FFC0
7FC0
3F80
ENDCHAR
STARTCHAR ae
ENCODING 230
SWIDTH 578 0
DWIDTH 10 0
BBX 10 12 0 0
BITMAP
3F80
60C0
EBC0
EBC0
E8C0
DBC0
C3C0
D8C0
FFC0
FFC0
7FC0
3F80
ENDCHAR
STARTCHAR ccedilla
ENCODING 231
SWIDTH 578 0
DWIDTH 10 0
BBX 10 12 0 0
BITMAP
3F80
61C0
EFC0
EFC0
EFC0
EFC0
EFC0
E1C0
FBC0
F7C0
73C0
3F80
ENDCHAR
STARTCHAR egrave
ENCODING 232
SWIDTH 578 0
DWIDTH 10 0
BBX 10 17 0 0
BITMAP
3C00
3600
3600
3E00
1E00
3F80
60C0
EEC0
E0C0
EFC0
EFC0
EFC0
E1C0
FFC0
FFC0
7FC0
3F80
ENDCHAR
STARTCHAR eacute
ENCODING 233
SWIDTH 578 0
DWIDTH 10 0
BBX 10 17 0 0
BITMAP
0F00
0D80
0B80
1B00
1E00
3F80
60C0
EEC0
E0C0
EFC0
EFC0
EFC0
E1C0
FFC0
FFC0
7FC0
3F80
ENDCHAR
STARTCHAR ecircumflex
ENCODING 234
SWIDTH 578 0
DWIDTH 10 0
BBX 10 17 0 0
BITMAP
1E00
1B00
3700
3700
3F00
3F80
60C0
EEC0
E0C0
EFC0
EFC0
EFC0
E1C0
FFC0
FFC0
7FC0
3F80
ENDCHAR
STARTCHAR edieresis
ENCODING 235
SWIDTH 578 0
DWIDTH 10 0
BBX 10 16 0 0
BITMAP
1F00
3F00
2D80
3F00
3F80
60C0
EEC0
E0C0
EFC0
EFC0
EFC0
E1C0
FFC0
FFC0
7FC0
3F80
ENDCHAR
STARTCHAR igrave
ENCODING 236
SWIDTH 578 0
DWIDTH 10 0
BBX 10 17 0 0
BITMAP
1C00
3600
3600
1E00
1E00
3F80
60C0
FBC0
FBC0
FBC0
FBC0
FBC0
E0C0
FFC0
FFC0
7FC0
3F80
ENDCHAR
STARTCHAR iacute
ENCODING 237
SWIDTH 578 0
DWIDTH 10 0
BBX 10 17 0 0
BITMAP
0700
0D80
0D80
0B00
1F00
3F80
60C0
FBC0
FBC0
FBC0
FBC0
FBC0
E0C0
FFC0
FFC0
7FC0
3F80
ENDCHAR
STARTCHAR icircumflex
ENCODING 238
SWIDTH 578 0
DWIDTH 10 0
BBX 10 17 0 0
BITMAP
0E00
1B00
1F00
1580
3F80
3F80
60C0
FBC0
FBC0
FBC0
FBC0
FBC0
E0C0
FFC0
FFC0
7FC0
3F80
ENDCHAR
STARTCHAR idieresis
ENCODING 239
SWIDTH 578 0
DWIDTH 10 0
BBX 10 16 0 0
BITMAP
1F00
3F80
3580
3F80
3F80
60C0
FBC0
FBC0
FBC0
FBC0
FBC0
E0C0
FFC0
FFC0
7FC0
3F80
ENDCHAR
STARTCHAR eth
ENCODING 240
SWIDTH 578 0
DWIDTH 10 0
BBX 10 12 0 0
BITMAP
3F80
60C0
EEC0
EEC0
C6C0
EEC0
EEC0
E0C0
FFC0
FFC0
7FC0
3F80
ENDCHAR
STARTCHAR ntilde
ENCODING 241
SWIDTH 578 0
DWIDTH 10 0
BBX 10 18 0 0
BITMAP
0E00
3F00
3F80
7F80
2980
3F00
3F80
60C0
EEC0
EEC0
EEC0
EEC0
EEC0
EEC0
FFC0
FFC0
7FC0
3F80
ENDCHAR
STARTCHAR oacute
ENCODING 243
SWIDTH 578 0
DWIDTH 10 0
BBX 10 17 0 0
BITMAP
0F00
0D80
0B80
1B00
1E00
3F80
60C0
EEC0
EEC0
EEC0
EEC0
EEC0
E0C0
FFC0
FFC0
7FC0
3F80
ENDCHAR
STARTCHAR ocircumflex
ENCODING 244
SWIDTH 578 0
DWIDTH 10 0
BBX 10 17 0 0
BITMAP
0E00
1B00
1F00
1580
3F80
3F80
60C0
EEC0
EEC0
EEC0
EEC0
EEC0
E0C0
FFC0
FFC0
7FC0
3F80
ENDCHAR
STARTCHAR otilde
ENCODING 245
SWIDTH 578 0
DWIDTH 10 0
BBX 10 17 0 0
BITMAP
0E00
3F80
3F80
3F80
2980
3F80
60C0
EEC0
EEC0
EEC0
EEC0
EEC0
E0C0
FFC0
FFC0
7FC0
3F80
ENDCHAR
STARTCHAR odieresis
ENCODING 246
SWIDTH 578 0
DWIDTH 10 0
BBX 10 16 0 0
BITMAP
1F00
3F80
3580
3F80
3F80
60C0
EEC0
EEC0
EEC0
EEC0
EEC0
E0C0
FFC0
FFC0
7FC0
3F80
ENDCHAR
STARTCHAR divide
ENCODING 247
SWIDTH 428 0
DWIDTH 8 0
BBX 8 12 0 0
BITMAP
3C
6E
FF
C3
FF
FF
FF
FF
FF
FF
7E
3C
ENDCHAR
STARTCHAR oslash
ENCODING 248
SWIDTH 578 0
DWIDTH 10 0
BBX 10 12 0 0
BITMAP
3F80
62C0
EDC0
EEC0
EAC0
F6C0
EEC0
E0C0
FFC0
FFC0
7FC0
3F80
ENDCHAR
STARTCHAR ugrave
ENCODING 249
SWIDTH 578 0
DWIDTH 10 0
BBX 10 17 0 0
BITMAP
1C00
3600
3600
1E00
1E00
3F80
6EC0
EEC0
EEC0
EEC0
EEC0
EEC0
E0C0
FFC0
FFC0
7FC0
3F80
ENDCHAR
STARTCHAR uacute
ENCODING 250
SWIDTH 578 0
DWIDTH 10 0
BBX 10 17 0 0
BITMAP
0700
0D80
0D80
0B00
1F00
3F80
6EC0
EEC0
EEC0
EEC0
EEC0
EEC0
E0C0
FFC0
FFC0
7FC0
3F80
ENDCHAR
STARTCHAR ucircumflex
ENCODING 251
SWIDTH 578 0
DWIDTH 10 0
BBX 10 17 0 0
BITMAP
0E00
1B00
1F00
1580
3F80
3F80
6EC0
EEC0
EEC0
EEC0
EEC0
EEC0
E0C0
FFC0
FFC0
7FC0
3F80
ENDCHAR
STARTCHAR udieresis
ENCODING 252
SWIDTH 578 0
DWIDTH 10 0
BBX 10 16 0 0
BITMAP
1F00
3F80
3580
3F80
3F80
6EC0
EEC0
EEC0
EEC0
EEC0
EEC0
E0C0
FFC0
FFC0
7FC0
3F80
ENDCHAR
STARTCHAR yacute
ENCODING 253
SWIDTH 578 0
DWIDTH 10 0
BBX 10 17 0 0
BITMAP
0700
0D80
0D80
0B00
1F00
3F80
6EC0
F4C0
F5C0
FDC0
FBC0
FBC0
FBC0
FFC0
FFC0
7FC0
3F80
ENDCHAR
STARTCHAR thorn
ENCODING 254
SWIDTH 578 0
DWIDTH 10 0
BBX 10 12 0 0
BITMAP
3F80
6FC0
E0C0
EEC0
EEC0
E0C0
EFC0
EFC0
FFC0
FFC0
7FC0
3F80
ENDCHAR
STARTCHAR ydieresis
ENCODING 255
SWIDTH 578 0
DWIDTH 10 0
BBX 10 16 0 0
BITMAP
1F00
3F80
3580
3F80
3F80
6EC0
F4C0
F5C0
FDC0
FBC0
FBC0
FBC0
FFC0
FFC0
7FC0
3F80
ENDCHAR
STARTCHAR Amacron
ENCODING 256
SWIDTH 578 0
DWIDTH 10 0
BBX 10 16 0 0
BITMAP
1F00
3F80
3180
3F80
3F80
60C0
EEC0
EEC0
EEC0
EEC0
EEC0
EEC0
FFC0
FFC0
7FC0
3F80
ENDCHAR
STARTCHAR amacron
ENCODING 257
SWIDTH 578 0
DWIDTH 10 0
BBX 10 16 0 0
BITMAP
1F00
3F80
31C0
3F80
3F80
60C0
FEC0
FEC0
E0C0
EEC0
EEC0
E0C0
FFC0
FFC0
7FC0
3F80
ENDCHAR
STARTCHAR Abreve
ENCODING 258
SWIDTH 578 0
DWIDTH 10 0
BBX 10 17 0 0
BITMAP
1F00
3F80
3580
3180
3F80
3F80
60C0
EEC0
EEC0
EEC0
EEC0
EEC0
EEC0
FFC0
FFC0
7FC0
3F80
ENDCHAR
STARTCHAR abreve
ENCODING 259
SWIDTH 578 0
DWIDTH 10 0
BBX 10 17 0 0
BITMAP
1F00
3F80
35C0
3180
1F80
3F80
60C0
FEC0
FEC0
E0C0
EEC0
EEC0
E0C0
FFC0
FFC0
7FC0
3F80
ENDCHAR
STARTCHAR Aogonek
ENCODING 260
SWIDTH 578 0
DWIDTH 10 0
BBX 10 12 0 0
BITMAP
3F80
60C0
EEC0
EEC0
EEC0
EEC0
EEC0
EEC0
FFC0
FDC0
7EC0
3F80
ENDCHAR
STARTCHAR aogonek
ENCODING 261
SWIDTH 578 0
DWIDTH 10 0
BBX 10 12 0 0
BITMAP
3F80
60C0
FEC0
FEC0
E0C0
EEC0
EEC0
E0C0
FFC0
F7C0
7BC0
3F80
ENDCHAR
STARTCHAR Cacute
ENCODING 262
SWIDTH 578 0
DWIDTH 10 0
BBX 10 17 0 0
BITMAP
0700
0D80
0D80
0B00
1F00
3F80
61C0
EFC0
EFC0
EFC0
EFC0
EFC0
E1C0
FFC0
FFC0
7FC0
3F80
ENDCHAR
STARTCHAR cacute
ENCODING 263
SWIDTH 578 0
DWIDTH 10 0
BBX 10 17 0 0
BITMAP
0700
0D80
0D80
0B00
1F00
3F80
61C0
EFC0
EFC0
EFC0
EFC0
EFC0
E1C0
FFC0
FFC0
7FC0
3F80
ENDCHAR
STARTCHAR Ccircumflex
ENCODING 264
SWIDTH 578 0
DWIDTH 10 0
BBX 10 17 0 0
BITMAP
0E00
1B00
1F00
3580
3F80
3F80
61C0
EFC0
EFC0
EFC0
EFC0
EFC0
E1C0
FFC0
FFC0
7FC0
3F80
ENDCHAR
STARTCHAR ccircumflex
ENCODING 265
SWIDTH 578 0
DWIDTH 10 0
BBX 10 17 0 0
BITMAP
0E00
1B00
1F00
3580
3F80
3F80
61C0
EFC0
EFC0
EFC0
EFC0
EFC0
E1C0
FFC0
FFC0
7FC0
3F80
ENDCHAR
STARTCHAR Cdotaccent
ENCODING 266
SWIDTH 578 0
DWIDTH 10 0
BBX 10 16 0 0
BITMAP
3F00
7F80
7380
7F80
3F80
61C0
EFC0
EFC0
EFC0
EFC0
EFC0
E1C0
FFC0
FFC0
7FC0
3F80
ENDCHAR
STARTCHAR cdotaccent
ENCODING 267
SWIDTH 578 0
DWIDTH 10 0
BBX 10 16 0 0
BITMAP
3F00
3F80
7B80
7F80
3F80
61C0
EFC0
EFC0
EFC0
EFC0
EFC0
E1C0
FFC0
FFC0
7FC0
3F80
ENDCHAR
STARTCHAR Ccaron
ENCODING 268
SWIDTH 578 0
DWIDTH 10 0
BBX 10 17 0 0
BITMAP
3F00
3F00
3700
3700
1B00
3F80
61C0
EFC0
EFC0
EFC0
EFC0
EFC0
E1C0
FFC0
FFC0
7FC0
3F80
ENDCHAR
STARTCHAR ccaron
ENCODING 269
SWIDTH 578 0
DWIDTH 10 0
BBX 10 17 0 0
BITMAP
1F00
3F00
3700
3700
1B00
3F80
61C0
EFC0
EFC0
EFC0
EFC0
EFC0
E1C0
FFC0
FFC0
7FC0
3F80
ENDCHAR
STARTCHAR Dcaron
ENCODING 270
SWIDTH 578 0
DWIDTH 10 0
BBX 10 17 0 0
BITMAP
1F00
3F00
3700
3700
1B00
3F80
60C0
EEC0
EEC0
EEC0
EEC0
EEC0
E0C0
FFC0
FFC0
7FC0
3F80
ENDCHAR
STARTCHAR dcaron
ENCODING 271
SWIDTH 578 0
DWIDTH 10 0
BBX 10 12 0 0
BITMAP
3F80
4140
DD40
DDC0
DDC0
DDC0
DDC0
C1C0
FFC0
FFC0
7FC0
3F80
ENDCHAR
STARTCHAR Dcroat
ENCODING 272
SWIDTH 578 0
DWIDTH 10 0
BBX 10 12 0 0
BITMAP
3F80
60C0
EEC0
EEC0
C6C0
EEC0
EEC0
E0C0
FFC0
FFC0
7FC0
3F80
ENDCHAR
STARTCHAR dcroat
ENCODING 273
SWIDTH 578 0
DWIDTH 10 0
BBX 10 12 0 0
BITMAP
3F80
60C0
EEC0
EEC0
C6C0
EEC0
EEC0
E0C0
FFC0
FFC0
7FC0
3F80
ENDCHAR
STARTCHAR Emacron
ENCODING 274
SWIDTH 578 0
DWIDTH 10 0
BBX 10 16 0 0
BITMAP
1F00
3F80
31C0
3F80
3F80
70C0
FFC0
FFC0
F1C0
FFC0
FFC0
F0C0
FFC0
FFC0
7FC0
3F80
ENDCHAR
STARTCHAR emacron
ENCODING 275
SWIDTH 578 0
DWIDTH 10 0
BBX 10 16 0 0
BITMAP
3F00
3F80
6180
7F80
3F80
60C0
EEC0
E0C0
EFC0
EFC0
EFC0
E1C0
FFC0
FFC0
7FC0
3F80
ENDCHAR
STARTCHAR Ebreve
ENCODING 276
SWIDTH 578 0
DWIDTH 10 0
BBX 10 17 0 0
BITMAP
1F00
3F80
35C0
3180
1F80
3F80
70C0
FFC0
FFC0
F1C0
FFC0
FFC0
F0C0
FFC0
FFC0
7FC0
3F80
ENDCHAR
STARTCHAR ebreve
ENCODING 277
SWIDTH 578 0
DWIDTH 10 0
BBX 10 16 0 0
BITMAP
3F00
3F80
7D80
7380
3F80
60C0
EEC0
E0C0
EFC0
EFC0
EFC0
E1C0
FFC0
FFC0
7FC0
3F80
ENDCHAR
STARTCHAR Edotaccent
ENCODING 278
SWIDTH 578 0
DWIDTH 10 0
BBX 10 17 0 0
BITMAP
1F00
3F80
3BC0
3F80
3F80
3F80
70C0
FFC0
FFC0
F1C0
FFC0
FFC0
F0C0
FFC0
FFC0
7FC0
3F80
ENDCHAR
STARTCHAR edotaccent
ENCODING 279
SWIDTH 578 0
DWIDTH 10 0
BBX 10 16 0 0
BITMAP
3F00
3F80
7B80
7F80
3F80
60C0
EEC0
E0C0
EFC0
EFC0
EFC0
E1C0
FFC0
FFC0
7FC0
3F80
ENDCHAR
STARTCHAR Eogonek
ENCODING 280
SWIDTH 578 0
DWIDTH 10 0
BBX 10 12 0 0
BITMAP
3F80
70C0
FFC0
FFC0
F1C0
FFC0
FFC0
F0C0
FFC0
FDC0
7CC0
3F80
ENDCHAR
STARTCHAR eogonek
ENCODING 281
SWIDTH 578 0
DWIDTH 10 0
BBX 10 12 0 0
BITMAP
3F80
60C0
EEC0
E0C0
EFC0
EFC0
EFC0
E5C0
FBC0
FFC0
7DC0
3F80
ENDCHAR
STARTCHAR Ecaron
ENCODING 282
SWIDTH 578 0
DWIDTH 10 0
BBX 10 17 0 0
BITMAP
1F00
3F80
1580
1D80
1B00
3F80
70C0
FFC0
FFC0
F1C0
FFC0
FFC0
F0C0
FFC0
FFC0
7FC0
3F80
ENDCHAR
STARTCHAR ecaron
ENCODING 283
SWIDTH 578 0
DWIDTH 10 0
BBX 10 17 0 0
BITMAP
1F00
3F00
3700
3700
1B00
3F80
60C0
EEC0
E0C0
EFC0
EFC0
EFC0
E1C0
FFC0
FFC0
7FC0
3F80
ENDCHAR
STARTCHAR Gcircumflex
ENCODING 284
SWIDTH 578 0
DWIDTH 10 0
BBX 10 17 0 0
BITMAP
0E00
1B00
1F00
3500
3F80
3F80
60C0
EFC0
EFC0
ECC0
EEC0
EEC0
E0C0
FFC0
FFC0
7FC0
3F80
ENDCHAR
STARTCHAR gcircumflex
ENCODING 285
SWIDTH 578 0
DWIDTH 10 0
BBX 10 17 0 0
BITMAP
0E00
1B00
1F00
3500
3F80
3F80
60C0
EFC0
EFC0
ECC0
EEC0
EEC0
E0C0
FFC0
FFC0
7FC0
3F80
ENDCHAR
STARTCHAR Gbreve
ENCODING 286
SWIDTH 578 0
DWIDTH 10 0
BBX 10 17 0 0
BITMAP
1F00
3F80
7580
3180
3F00
3F80
60C0
EFC0
EFC0
ECC0
EEC0
EEC0
E0C0
FFC0
FFC0
7FC0
3F80
ENDCHAR
STARTCHAR gbreve
ENCODING 287
SWIDTH 578 0
DWIDTH 10 0
BBX 10 17 0 0
BITMAP
3F00
3F80
7D80
7380
3F00
3F80
60C0
EFC0
EFC0
ECC0
EEC0
EEC0
E0C0
FFC0
FFC0
7FC0
3F80
ENDCHAR
STARTCHAR Gdotaccent
ENCODING 288
SWIDTH 578 0
DWIDTH 10 0
BBX 10 16 0 0
BITMAP
3F00
3F80
7B80
7F80
3F80
60C0
EFC0
EFC0
ECC0
EEC0
EEC0
E0C0
FFC0
FFC0
7FC0
3F80
ENDCHAR
STARTCHAR gdotaccent
ENCODING 289
SWIDTH 578 0
DWIDTH 10 0
BBX 10 17 0 0
BITMAP
3F00
3F80
7B80
7F80
3F80
3F80
60C0
EFC0
EFC0
ECC0
EEC0
EEC0
E0C0
FFC0
FFC0
7FC0
3F80
ENDCHAR
STARTCHAR Gcommaaccent
ENCODING 290
SWIDTH 578 0
DWIDTH 10 0
BBX 10 12 0 0
BITMAP
3F80
60C0
EFC0
EFC0
ECC0
EEC0
EEC0
E0C0
FFC0
FBC0
7FC0
3F80
ENDCHAR
STARTCHAR gcommaaccent
ENCODING 291
SWIDTH 578 0
DWIDTH 10 0
BBX 10 12 0 0
BITMAP
3F80
60C0
EFC0
EFC0
ECC0
EEC0
EEC0
E0C0
FFC0
FBC0
7FC0
3F80
ENDCHAR
STARTCHAR Hcircumflex
ENCODING 292
SWIDTH 578 0
DWIDTH 10 0
BBX 10 17 0 0
BITMAP
0E00
1B00
1F00
3580
3F80
3F80
6EC0
EEC0
EEC0
E0C0
EEC0
EEC0
EEC0
FFC0
FFC0
7FC0
3F80
ENDCHAR
STARTCHAR hcircumflex
ENCODING 293
SWIDTH 578 0
DWIDTH 10 0
BBX 10 17 0 0
BITMAP
0E00
1B00
1F00
3580
3F80
3F80
6EC0
EEC0
EEC0
E0C0
EEC0
EEC0
EEC0
FFC0
FFC0
7FC0
3F80
ENDCHAR
STARTCHAR Hbar
ENCODING 294
SWIDTH 578 0
DWIDTH 10 0
BBX 10 17 0 0
BITMAP
1F00
3F80
7180
3F80
3F00
3F80
6EC0
EEC0
EEC0
E0C0
EEC0
EEC0
EEC0
FFC0
FFC0
7FC0
3F80
ENDCHAR
STARTCHAR hbar
ENCODING 295
SWIDTH 578 0
DWIDTH 10 0
BBX 10 12 0 0
BITMAP
3F80
6EC0
E040
EEC0
E0C0
EEC0
EEC0
EEC0
FFC0
FFC0
7FC0
3F80
ENDCHAR
STARTCHAR Itilde
ENCODING 296
SWIDTH 578 0
DWIDTH 10 0
BBX 10 18 0 0
BITMAP
0E00
1F80
3F80
3FC0
3980
1F80
3F80
60C0
FBC0
FBC0
FBC0
FBC0
FBC0
E0C0
FFC0
FFC0
7FC0
3F80
ENDCHAR
STARTCHAR itilde
ENCODING 297
SWIDTH 578 0
DWIDTH 10 0
BBX 10 18 0 0
BITMAP
0E00
1F80
3F80
3FC0
3980
3F80
3F80
60C0
FBC0
FBC0
FBC0
FBC0
FBC0
E0C0
FFC0
FFC0
7FC0
3F80
ENDCHAR
STARTCHAR Imacron
ENCODING 298
SWIDTH 578 0
DWIDTH 10 0
BBX 10 16 0 0
BITMAP
1F00
3F80
31C0
3F80
3F80
60C0
FBC0
FBC0
FBC0
FBC0
FBC0
E0C0
FFC0
FFC0
7FC0
3F80
ENDCHAR
STARTCHAR imacron
ENCODING 299
SWIDTH 578 0
DWIDTH 10 0
BBX 10 16 0 0
BITMAP
1F00
3F80
3180
3F80
3F80
60C0
FBC0
FBC0
FBC0
FBC0
FBC0
E0C0
FFC0
FFC0
7FC0
3F80
ENDCHAR
STARTCHAR Ibreve
ENCODING 300
SWIDTH 578 0
DWIDTH 10 0
BBX 10 17 0 0
BITMAP
1F00
3F80
37C0
3180
1F80
3F80
60C0
FBC0
FBC0
FBC0
FBC0
FBC0
E0C0
FFC0
FFC0
7FC0
3F80
ENDCHAR
STARTCHAR ibreve
ENCODING 301
SWIDTH 578 0
DWIDTH 10 0
BBX 10 17 0 0
BITMAP
1F00
3F80
35C0
3180
1F80
3F80
60C0
FBC0
FBC0
FBC0
FBC0
FBC0
E0C0
FFC0
FFC0
7FC0
3F80
ENDCHAR
STARTCHAR Iogonek
ENCODING 302
SWIDTH 578 0
DWIDTH 10 0
BBX 10 12 0 0
BITMAP
3F80
60C0
FBC0
FBC0
FBC0
FBC0
FBC0
E0C0
FFC0
FDC0
7EC0
3F80
ENDCHAR
STARTCHAR iogonek
ENCODING 303
SWIDTH 578 0
DWIDTH 10 0
BBX 10 12 0 0
BITMAP
3F80
60C0
FBC0
FBC0
FBC0
FBC0
FBC0
E0C0
FFC0
FDC0
7EC0
3F80
ENDCHAR
STARTCHAR Idotaccent
ENCODING 304
SWIDTH 578 0
DWIDTH 10 0
BBX 10 16 0 0
BITMAP
1F00
3F80
7B80
3F80
3F80
60C0
FBC0
FBC0
FBC0
FBC0
FBC0
E0C0
FFC0
FFC0
7FC0
3F80
ENDCHAR
STARTCHAR dotlessi
ENCODING 305
SWIDTH 578 0
DWIDTH 10 0
BBX 10 12 0 0
BITMAP
3F80
60C0
FBC0
FBC0
FBC0
FBC0
FBC0
E0C0
FFC0
FFC0
7FC0
3F80
ENDCHAR
STARTCHAR IJ
ENCODING 306
SWIDTH 578 0
DWIDTH 10 0
BBX 10 12 0 0
BITMAP
3F80
4740
EF40
EF40
EF40
EF40
EF40
C440
FFC0
FFC0
7FC0
3F80
ENDCHAR
STARTCHAR ij
ENCODING 307
SWIDTH 578 0
DWIDTH 10 0
BBX 10 12 0 0
BITMAP
3F80
4740
EF40
EF40
EF40
EF40
EF40
C440
FFC0
FFC0
7FC0
3F80
ENDCHAR
STARTCHAR Jcircumflex
ENCODING 308
SWIDTH 578 0
DWIDTH 10 0
BBX 10 17 0 0
BITMAP
0E00
1B00
1F00
3580
3F80
3F80
7DC0
FDC0
FDC0
FDC0
FDC0
FDC0
F1C0
FFC0
FFC0
7FC0
3F80
ENDCHAR
STARTCHAR jcircumflex
ENCODING 309
SWIDTH 578 0
DWIDTH 10 0
BBX 10 17 0 0
BITMAP
0E00
1B00
1F00
3580
3F80
3F80
7DC0
FDC0
FDC0
FDC0
FDC0
FDC0
F1C0
FFC0
FFC0
7FC0
3F80
ENDCHAR
STARTCHAR Kcommaaccent
ENCODING 310
SWIDTH 578 0
DWIDTH 10 0
BBX 10 12 0 0
BITMAP
3F80
76C0
F5C0
FBC0
F3C0
F5C0
F4C0
F640
FFC0
FBC0
7FC0
3F80
ENDCHAR
STARTCHAR kcommaaccent
ENCODING 311
SWIDTH 578 0
DWIDTH 10 0
BBX 10 12 0 0
BITMAP
3F80
76C0
F5C0
FBC0
F3C0
F5C0
F4C0
F640
FFC0
FBC0
7FC0
3F80
ENDCHAR
STARTCHAR kgreenlandic
ENCODING 312
SWIDTH 578 0
DWIDTH 10 0
BBX 10 12 0 0
BITMAP
3F80
76C0
F5C0
FBC0
F3C0
F5C0
F4C0
F640
FFC0
FFC0
7FC0
3F80
ENDCHAR
STARTCHAR Lacute
ENCODING 313
SWIDTH 578 0
DWIDTH 10 0
BBX 10 17 0 0
BITMAP
0E00
1B00
1B00
1600
3E00
3F80
77C0
F7C0
F7C0
F7C0
F7C0
F7C0
F0C0
FFC0
FFC0
7FC0
3F80
ENDCHAR
STARTCHAR lacute
ENCODING 314
SWIDTH 578 0
DWIDTH 10 0
BBX 10 17 0 0
BITMAP
0E00
1B00
1B00
1600
3E00
3F80
77C0
F7C0
F7C0
F7C0
F7C0
F7C0
F0C0
FFC0
FFC0
7FC0
3F80
ENDCHAR
STARTCHAR Lcommaaccent
ENCODING 315
SWIDTH 578 0
DWIDTH 10 0
BBX 10 12 0 0
BITMAP
3F80
77C0
F7C0
F7C0
F7C0
F7C0
F7C0
F0C0
FFC0
FBC0
7FC0
3F80
ENDCHAR
STARTCHAR lcommaaccent
ENCODING 316
SWIDTH 578 0
DWIDTH 10 0
BBX 10 12 0 0
BITMAP
3F80
77C0
F7C0
F7C0
F7C0
F7C0
F7C0
F0C0
FFC0
FBC0
7FC0
3F80
ENDCHAR
STARTCHAR Lcaron
ENCODING 317
SWIDTH 578 0
DWIDTH 10 0
BBX 10 12 0 0
BITMAP
3F80
75C0
F7C0
F7C0
F7C0
F7C0
F7C0
F0C0
FFC0
FFC0
7FC0
3F80
ENDCHAR
STARTCHAR lcaron
ENCODING 318
SWIDTH 578 0
DWIDTH 10 0
BBX 10 12 0 0
BITMAP
3F80
75C0
F7C0
F7C0
F7C0
F7C0
F7C0
F0C0
FFC0
FFC0
7FC0
3F80
ENDCHAR
STARTCHAR Ldot
ENCODING 319
SWIDTH 578 0
DWIDTH 10 0
BBX 10 12 0 0
BITMAP
3F80
77C0
F7C0
F5C0
F7C0
F7C0
F7C0
F0C0
FFC0
FFC0
7FC0
3F80
ENDCHAR
STARTCHAR ldot
ENCODING 320
SWIDTH 578 0
DWIDTH 10 0
BBX 10 12 0 0
BITMAP
3F80
77C0
F7C0
F5C0
F7C0
F7C0
F7C0
F0C0
FFC0
FFC0
7FC0
3F80
ENDCHAR
STARTCHAR Lslash
ENCODING 321
SWIDTH 578 0
DWIDTH 10 0
BBX 10 12 0 0
BITMAP
3F80
77C0
F7C0
F3C0
E7C0
F7C0
F7C0
F0C0
FFC0
FFC0
7FC0
3F80
ENDCHAR
STARTCHAR lslash
ENCODING 322
SWIDTH 578 0
DWIDTH 10 0
BBX 10 12 0 0
BITMAP
3F80
77C0
F7C0
F3C0
E7C0
F7C0
F7C0
F0C0
FFC0
FFC0
7FC0
3F80
ENDCHAR
STARTCHAR Nacute
ENCODING 323
SWIDTH 578 0
DWIDTH 10 0
BBX 10 17 0 0
BITMAP
0F00
0D80
0B80
1B00
1E00
3F80
60C0
EEC0
EEC0
EEC0
EEC0
EEC0
EEC0
FFC0
FFC0
7FC0
3F80
ENDCHAR
STARTCHAR nacute
ENCODING 324
SWIDTH 578 0
DWIDTH 10 0
BBX 10 17 0 0
BITMAP
0F00
0D80
0B80
1B00
1E00
3F80
60C0
EEC0
EEC0
EEC0
EEC0
EEC0
EEC0
FFC0
FFC0
7FC0
3F80
ENDCHAR
STARTCHAR Ncommaaccent
ENCODING 325
SWIDTH 578 0
DWIDTH 10 0
BBX 10 12 0 0
BITMAP
3F80
60C0
EEC0
EEC0
EEC0
EEC0
EEC0
EEC0
FFC0
FBC0
7FC0
3F80
ENDCHAR
STARTCHAR ncommaaccent
ENCODING 326
SWIDTH 578 0
DWIDTH 10 0
BBX 10 12 0 0
BITMAP
3F80
60C0
EEC0
EEC0
EEC0
EEC0
EEC0
EEC0
FFC0
FBC0
7FC0
3F80
ENDCHAR
STARTCHAR Ncaron
ENCODING 327
SWIDTH 578 0
DWIDTH 10 0
BBX 10 17 0 0
BITMAP
1F00
3F00
3700
3700
1B00
3F80
60C0
EEC0
EEC0
EEC0
EEC0
EEC0
EEC0
FFC0
FFC0
7FC0
3F80
ENDCHAR
STARTCHAR ncaron
ENCODING 328
SWIDTH 578 0
DWIDTH 10 0
BBX 10 17 0 0
BITMAP
1F00
3F00
3700
3700
1B00
3F80
60C0
EEC0
EEC0
EEC0
EEC0
EEC0
EEC0
FFC0
FFC0
7FC0
3F80
ENDCHAR
STARTCHAR napostrophe
ENCODING 329
SWIDTH 578 0
DWIDTH 10 0
BBX 10 12 0 0
BITMAP
3F80
60C0
EEC0
AEC0
EEC0
EEC0
EEC0
EEC0
FFC0
FFC0
7FC0
3F80
ENDCHAR
STARTCHAR Eng
ENCODING 330
SWIDTH 578 0
DWIDTH 10 0
BBX 10 12 0 0
BITMAP
3F80
60C0
EEC0
EEC0
EEC0
EEC0
EEC0
EEC0
FEC0
FEC0
79C0
3F80
ENDCHAR
STARTCHAR eng
ENCODING 331
SWIDTH 578 0
DWIDTH 10 0
BBX 10 12 0 0
BITMAP
3F80
60C0
EEC0
EEC0
EEC0
EEC0
EEC0
EEC0
FEC0
FEC0
79C0
3F80
ENDCHAR
STARTCHAR Omacron
ENCODING 332
SWIDTH 578 0
DWIDTH 10 0
BBX 10 16 0 0
BITMAP
1F00
3F80
31C0
3F80
3F80
60C0
EEC0
EEC0
EEC0
EEC0
EEC0
E0C0
FFC0
FFC0
7FC0
3F80
ENDCHAR
STARTCHAR omacron
ENCODING 333
SWIDTH 578 0
DWIDTH 10 0
BBX 10 16 0 0
BITMAP
1F00
3F80
31C0
3F80
3F80
60C0
EEC0
EEC0
EEC0
EEC0
EEC0
E0C0
FFC0
FFC0
7FC0
3F80
ENDCHAR
STARTCHAR Obreve
ENCODING 334
SWIDTH 578 0
DWIDTH 10 0
BBX 10 17 0 0
BITMAP
1F00
3F80
35C0
3180
1F80
3F80
60C0
EEC0
EEC0
EEC0
EEC0
EEC0
E0C0
FFC0
FFC0
7FC0
3F80
ENDCHAR
STARTCHAR obreve
ENCODING 335
SWIDTH 578 0
DWIDTH 10 0
BBX 10 17 0 0
BITMAP
1F00
3F80
35C0
3180
1F80
3F80
60C0
EEC0
EEC0
EEC0
EEC0
EEC0
E0C0
FFC0
FFC0
7FC0
3F80
ENDCHAR
STARTCHAR Ohungarumlaut
ENCODING 336
SWIDTH 578 0
DWIDTH 10 0
BBX 10 17 0 0
BITMAP
0780
0FC0
0FC0
1AC0
1F80
3F80
60C0
EEC0
EEC0
EEC0
EEC0
EEC0
E0C0
FFC0
FFC0
7FC0
3F80
ENDCHAR
STARTCHAR ohungarumlaut
ENCODING 337
SWIDTH 578 0
DWIDTH 10 0
BBX 10 17 0 0
BITMAP
0780
0FC0
0FC0
1AC0
1F80
3F80
60C0
EEC0
EEC0
EEC0
EEC0
EEC0
E0C0
FFC0
FFC0
7FC0
3F80
ENDCHAR
STARTCHAR OE
ENCODING 338
SWIDTH 578 0
DWIDTH 10 0
BBX 10 12 0 0
BITMAP
3F80
4040
DBC0
DBC0
D8C0
DBC0
DBC0
C040
FFC0
FFC0
7FC0
3F80
ENDCHAR
STARTCHAR oe
ENCODING 339
SWIDTH 578 0
DWIDTH 10 0
BBX 10 12 0 0
BITMAP
3F80
4040
DBC0
DBC0
D8C0
DBC0
DBC0
C040
FFC0
FFC0
7FC0
3F80
ENDCHAR
STARTCHAR Racute
ENCODING 340
SWIDTH 578 0
DWIDTH 10 0
BBX 10 17 0 0
BITMAP
0F00
0D80
0B80
1B00
1E00
3F80
60C0
EEC0
EEC0
E1C0
EEC0
EEC0
EEC0
FFC0
FFC0
7FC0
3F80
ENDCHAR
STARTCHAR racute
ENCODING 341
SWIDTH 578 0
DWIDTH 10 0
BBX 10 17 0 0
BITMAP
0F00
0D80
0B80
1B00
1E00
3F80
60C0
EEC0
EEC0
E1C0
EEC0
EEC0
EEC0
FFC0
FFC0
7FC0
3F80
ENDCHAR
STARTCHAR Rcommaaccent
ENCODING 342
SWIDTH 578 0
DWIDTH 10 0
BBX 10 12 0 0
BITMAP
3F80
60C0
EEC0
EEC0
E1C0
EEC0
EEC0
EEC0
FFC0
FBC0
7FC0
3F80
ENDCHAR
STARTCHAR rcommaaccent
ENCODING 343
SWIDTH 578 0
DWIDTH 10 0
BBX 10 12 0 0
BITMAP
3F80
60C0
EEC0
EEC0
E1C0
EEC0
EEC0
EEC0
FFC0
FBC0
7FC0
3F80
ENDCHAR
STARTCHAR Rcaron
ENCODING 344
SWIDTH 578 0
DWIDTH 10 0
BBX 10 17 0 0
BITMAP
1F00
3F00
3700
3700
1B00
3F80
60C0
EEC0
EEC0
E1C0
EEC0
EEC0
EEC0
FFC0
FFC0
7FC0
3F80
ENDCHAR
STARTCHAR rcaron
ENCODING 345
SWIDTH 578 0
DWIDTH 10 0
BBX 10 17 0 0
BITMAP
1F00
3F00
3700
3700
1B00
3F80
60C0
EEC0
EEC0
E1C0
EEC0
EEC0
EEC0
FFC0
FFC0
7FC0
3F80
ENDCHAR
STARTCHAR Sacute
ENCODING 346
SWIDTH 578 0
DWIDTH 10 0
BBX 10 17 0 0
BITMAP
0700
0D80
0D80
0F00
1F00
3F80
60C0
EFC0
EFC0
F0C0
FEC0
FEC0
E0C0
FFC0
FFC0
7FC0
3F80
ENDCHAR
STARTCHAR sacute
ENCODING 347
SWIDTH 578 0
DWIDTH 10 0
BBX 10 17 0 0
BITMAP
0700
0D80
0D80
0F00
1F00
3F80
60C0
EFC0
EFC0
F0C0
FEC0
FEC0
E0C0
FFC0
FFC0
7FC0
3F80
ENDCHAR
STARTCHAR Scircumflex
ENCODING 348
SWIDTH 578 0
DWIDTH 10 0
BBX 10 17 0 0
BITMAP
0F00
1B00
1D00
1580
3F80
3F80
60C0
EFC0
EFC0
F0C0
FEC0
FEC0
E0C0
FFC0
FFC0
7FC0
3F80
ENDCHAR
STARTCHAR scircumflex
ENCODING 349
SWIDTH 578 0
DWIDTH 10 0
BBX 10 17 0 0
BITMAP
0F00
1B00
1D00
1580
3F80
3F80
60C0
EFC0
EFC0
F0C0
FEC0
FEC0
E0C0
FFC0
FFC0
7FC0
3F80
ENDCHAR
STARTCHAR Scedilla
ENCODING 350
SWIDTH 578 0
DWIDTH 10 0
BBX 10 12 0 0
BITMAP
3F80
60C0
EFC0
EFC0
F0C0
FEC0
FEC0
E0C0
FBC0
F7C0
7BC0
3F80
ENDCHAR
STARTCHAR scedilla
ENCODING 351
SWIDTH 578 0
DWIDTH 10 0
BBX 10 12 0 0
BITMAP
3F80
60C0
EFC0
EFC0
F0C0
FEC0
FEC0
E0C0
FBC0
F7C0
7BC0
3F80
ENDCHAR
STARTCHAR Scaron
ENCODING 352
SWIDTH 578 0
DWIDTH 10 0
BBX 10 17 0 0
BITMAP
1F00
1F80
1D80
1D80
1B00
3F80
60C0
EFC0
EFC0
F0C0
FEC0
FEC0
E0C0
FFC0
FFC0
7FC0
3F80
ENDCHAR
STARTCHAR scaron
ENCODING 353
SWIDTH 578 0
DWIDTH 10 0
BBX 10 17 0 0
BITMAP
1F00
1F80
1D80
1D80
1B00
3F80
60C0
EFC0
EFC0
F0C0
FEC0
FEC0
E0C0
FFC0
FFC0
7FC0
3F80
ENDCHAR
STARTCHAR Tcommaaccent
ENCODING 354
SWIDTH 578 0
DWIDTH 10 0
BBX 10 12 0 0
BITMAP
3F80
60C0
FBC0
FBC0
FBC0
FBC0
FBC0
FBC0
FFC0
FBC0
7FC0
3F80
ENDCHAR
STARTCHAR tcommaaccent
ENCODING 355
SWIDTH 578 0
DWIDTH 10 0
BBX 10 12 0 0
BITMAP
3F80
60C0
FBC0
FBC0
FBC0
FBC0
FBC0
FBC0
FFC0
FBC0
7FC0
3F80
ENDCHAR
STARTCHAR Tcaron
ENCODING 356
SWIDTH 578 0
DWIDTH 10 0
BBX 10 17 0 0
BITMAP
1B00
3F80
3580
1F00
1B00
3F80
60C0
FBC0
FBC0
FBC0
FBC0
FBC0
FBC0
FFC0
FFC0
7FC0
3F80
ENDCHAR
STARTCHAR tcaron
ENCODING 357
SWIDTH 578 0
DWIDTH 10 0
BBX 10 12 0 0
BITMAP
3F80
61C0
FAC0
FAC0
FBC0
FBC0
FBC0
FBC0
FFC0
FFC0
7FC0
3F80
ENDCHAR
STARTCHAR Tbar
ENCODING 358
SWIDTH 578 0
DWIDTH 10 0
BBX 10 12 0 0
BITMAP
3F80
60C0
FBC0
FBC0
F1C0
FBC0
FBC0
FBC0
FFC0
FFC0
7FC0
3F80
ENDCHAR
STARTCHAR tbar
ENCODING 359
SWIDTH 578 0
DWIDTH 10 0
BBX 10 12 0 0
BITMAP
3F80
60C0
FBC0
FBC0
F1C0
FBC0
FBC0
FBC0
FFC0
FFC0
7FC0
3F80
ENDCHAR
STARTCHAR Utilde
ENCODING 360
SWIDTH 578 0
DWIDTH 10 0
BBX 10 18 0 0
BITMAP
0E00
1F80
3F80
3FC0
3980
3F80
3F80
6EC0
EEC0
EEC0
EEC0
EEC0
EEC0
E0C0
FFC0
FFC0
7FC0
3F80
ENDCHAR
STARTCHAR utilde
ENCODING 361
SWIDTH 578 0
DWIDTH 10 0
BBX 10 18 0 0
BITMAP
0E00
1F80
3F80
3FC0
3980
3F80
3F80
6EC0
EEC0
EEC0
EEC0
EEC0
EEC0
E0C0
FFC0
FFC0
7FC0
3F80
ENDCHAR
STARTCHAR Umacron
ENCODING 362
SWIDTH 578 0
DWIDTH 10 0
BBX 10 16 0 0
BITMAP
1F00
3F80
31C0
3F80
3F80
6EC0
EEC0
EEC0
EEC0
EEC0
EEC0
E0C0
FFC0
FFC0
7FC0
3F80
ENDCHAR
STARTCHAR umacron
ENCODING 363
SWIDTH 578 0
DWIDTH 10 0
BBX 10 16 0 0
BITMAP
1F00
3F80
31C0
3F80
3F80
6EC0
EEC0
EEC0
EEC0
EEC0
EEC0
E0C0
FFC0
FFC0
7FC0
3F80
ENDCHAR
STARTCHAR Ubreve
ENCODING 364
SWIDTH 578 0
DWIDTH 10 0
BBX 10 17 0 0
BITMAP
1F00
3F80
35C0
3180
1F80
3F80
6EC0
EEC0
EEC0
EEC0
EEC0
EEC0
E0C0
FFC0
FFC0
7FC0
3F80
ENDCHAR
STARTCHAR ubreve
ENCODING 365
SWIDTH 578 0
DWIDTH 10 0
BBX 10 17 0 0
BITMAP
1F00
3F80
35C0
3180
1F80
3F80
6EC0
EEC0
EEC0
EEC0
EEC0
EEC0
E0C0
FFC0
FFC0
7FC0
3F80
ENDCHAR
STARTCHAR Uring
ENCODING 366
SWIDTH 578 0
DWIDTH 10 0
BBX 10 18 0 0
BITMAP
0400
1F00
3180
3580
3180
1F00
3F80
6EC0
EEC0
EEC0
EEC0
EEC0
EEC0
E0C0
FFC0
FFC0
7FC0
3F80
ENDCHAR
STARTCHAR uring
ENCODING 367
SWIDTH 578 0
DWIDTH 10 0
BBX 10 18 0 0
BITMAP
0400
1F00
3180
3580
3180
1F00
3F80
6EC0
EEC0
EEC0
EEC0
EEC0
EEC0
E0C0
FFC0
FFC0
7FC0
3F80
ENDCHAR
STARTCHAR Uhungarumlaut
ENCODING 368
SWIDTH 581 0
DWIDTH 10 0
BBX 11 17 0 0
BITMAP
07C0
0FC0
0FE0
1AC0
1F80
3F80
6EC0
EEC0
EEC0
EEC0
EEC0
EEC0
E0C0
FFC0
FFC0
7FC0
3F80
ENDCHAR
STARTCHAR uhungarumlaut
ENCODING 369
SWIDTH 582 0
DWIDTH 10 0
BBX 11 17 0 0
BITMAP
07C0
0FC0
0FE0
1AC0
1F80
3F80
6EC0
EEC0
EEC0
EEC0
EEC0
EEC0
E0C0
FFC0
FFC0
7FC0
3F80
ENDCHAR
STARTCHAR Uogonek
ENCODING 370
SWIDTH 578 0
DWIDTH 10 0
BBX 10 12 0 0
BITMAP
3F80
6EC0
EEC0
EEC0
EEC0
EEC0
EEC0
E0C0
FFC0
FBC0
79C0
3F80
ENDCHAR
STARTCHAR uogonek
ENCODING 371
SWIDTH 578 0
DWIDTH 10 0
BBX 10 12 0 0
BITMAP
3F80
6EC0
EEC0
EEC0
EEC0
EEC0
EEC0
E0C0
FFC0
FBC0
79C0
3F80
ENDCHAR
STARTCHAR Wcircumflex
ENCODING 372
SWIDTH 578 0
DWIDTH 10 0
BBX 10 17 0 0
BITMAP
0E00
1B00
1F00
3500
3F80
3F80
5B40
DB40
DB40
D740
D5C0
F5C0
E4C0
FFC0
FFC0
7FC0
3F80
ENDCHAR
STARTCHAR wcircumflex
ENCODING 373
SWIDTH 578 0
DWIDTH 10 0
BBX 10 17 0 0
BITMAP
0E00
1B00
1F00
3500
3F80
3F80
5B40
DB40
DB40
D740
D5C0
F5C0
E4C0
FFC0
FFC0
7FC0
3F80
ENDCHAR
STARTCHAR Ycircumflex
ENCODING 374
SWIDTH 578 0
DWIDTH 10 0
BBX 10 17 0 0
BITMAP
0E00
1B00
1F00
3580
3F80
3F80
6EC0
F4C0
F5C0
FDC0
FBC0
FBC0
FBC0
FFC0
FFC0
7FC0
3F80
ENDCHAR
STARTCHAR ycircumflex
ENCODING 375
SWIDTH 578 0
DWIDTH 10 0
BBX 10 17 0 0
BITMAP
0E00
1B00
1F00
3580
3F80
3F80
6EC0
F4C0
F5C0
FDC0
FBC0
FBC0
FBC0
FFC0
FFC0
7FC0
3F80
ENDCHAR
STARTCHAR Ydieresis
ENCODING 376
SWIDTH 578 0
DWIDTH 10 0
BBX 10 16 0 0
BITMAP
1F00
3F80
3580
3F80
3F80
6EC0
F4C0
F5C0
FDC0
FBC0
FBC0
FBC0
FFC0
FFC0
7FC0
3F80
ENDCHAR
STARTCHAR Zacute
ENCODING 377
SWIDTH 578 0
DWIDTH 10 0
BBX 10 17 0 0
BITMAP
0F00
1B00
1B00
1B00
1E00
3F80
60C0
FDC0
FBC0
FBC0
F7C0
F7C0
E8C0
FFC0
FFC0
7FC0
3F80
ENDCHAR
STARTCHAR zacute
ENCODING 378
SWIDTH 578 0
DWIDTH 10 0
BBX 10 17 0 0
BITMAP
0F00
1B00
1B00
1B00
1E00
3F80
60C0
FDC0
FBC0
FBC0
F7C0
F7C0
E8C0
FFC0
FFC0
7FC0
3F80
ENDCHAR
STARTCHAR Zdotaccent
ENCODING 379
SWIDTH 578 0
DWIDTH 10 0
BBX 10 16 0 0
BITMAP
3F00
3F80
7B80
7F80
3F80
60C0
FDC0
FBC0
FBC0
F7C0
F7C0
E8C0
FFC0
FFC0
7FC0
3F80
ENDCHAR
STARTCHAR zdotaccent
ENCODING 380
SWIDTH 578 0
DWIDTH 10 0
BBX 10 16 0 0
BITMAP
3F00
3F80
7B80
7F80
3F80
60C0
FDC0
FBC0
FBC0
F7C0
F7C0
E8C0
FFC0
FFC0
7FC0
3F80
ENDCHAR
STARTCHAR Zcaron
ENCODING 381
SWIDTH 578 0
DWIDTH 10 0
BBX 10 17 0 0
BITMAP
1B00
3F80
3580
3F00
1B00
3F80
60C0
FDC0
FBC0
FBC0
F7C0
F7C0
E8C0
FFC0
FFC0
7FC0
3F80
ENDCHAR
STARTCHAR zcaron
ENCODING 382
SWIDTH 578 0
DWIDTH 10 0
BBX 10 17 0 0
BITMAP
1B00
3F80
3580
3F00
1B00
3F80
60C0
FDC0
FBC0
FBC0
F7C0
F7C0
E8C0
FFC0
FFC0
7FC0
3F80
ENDCHAR
STARTCHAR longs
ENCODING 383
SWIDTH 578 0
DWIDTH 10 0
BBX 10 12 0 0
BITMAP
3F80
71C0
EEC0
FFC0
FBC0
EAC0
FBC0
FFC0
FFC0
FFC0
7FC0
3F80
ENDCHAR
STARTCHAR florin
ENCODING 402
SWIDTH 578 0
DWIDTH 10 0
BBX 10 12 0 0
BITMAP
3F80
79C0
F7C0
F7C0
F1C0
F7C0
F7C0
F7C0
F7C0
E7C0
7FC0
3F80
ENDCHAR
STARTCHAR uni01CD
ENCODING 461
SWIDTH 578 0
DWIDTH 10 0
BBX 10 17 0 0
BITMAP
1B00
3F80
3580
1F00
1B00
3F80
60C0
EEC0
EEC0
EEC0
EEC0
EEC0
EEC0
FFC0
FFC0
7FC0
3F80
ENDCHAR
STARTCHAR uni01CE
ENCODING 462
SWIDTH 578 0
DWIDTH 10 0
BBX 10 17 0 0
BITMAP
1F00
3F80
1580
1D80
1B00
3F80
60C0
FEC0
FEC0
E0C0
EEC0
EEC0
E0C0
FFC0
FFC0
7FC0
3F80
ENDCHAR
STARTCHAR uni01CF
ENCODING 463
SWIDTH 578 0
DWIDTH 10 0
BBX 10 17 0 0
BITMAP
1F00
1F80
1D80
1D80
1B00
3F80
60C0
FBC0
FBC0
FBC0
FBC0
FBC0
E0C0
FFC0
FFC0
7FC0
3F80
ENDCHAR
STARTCHAR uni01D0
ENCODING 464
SWIDTH 578 0
DWIDTH 10 0
BBX 10 17 0 0
BITMAP
1F00
3F80
1580
1D80
1B00
3F80
60C0
FBC0
FBC0
FBC0
FBC0
FBC0
E0C0
FFC0
FFC0
7FC0
3F80
ENDCHAR
STARTCHAR uni01D1
ENCODING 465
SWIDTH 578 0
DWIDTH 10 0
BBX 10 17 0 0
BITMAP
1F00
3F80
3580
1F80
1B00
3F80
60C0
EEC0
EEC0
EEC0
EEC0
EEC0
E0C0
FFC0
FFC0
7FC0
3F80
ENDCHAR
STARTCHAR uni01D3
ENCODING 467
SWIDTH 578 0
DWIDTH 10 0
BBX 10 17 0 0
BITMAP
1F00
3F80
1580
1D80
1B00
3F80
6EC0
EEC0
EEC0
EEC0
EEC0
EEC0
E0C0
FFC0
FFC0
7FC0
3F80
ENDCHAR
STARTCHAR uni01D4
ENCODING 468
SWIDTH 578 0
DWIDTH 10 0
BBX 10 17 0 0
BITMAP
1F00
3F80
1580
1D80
1B00
3F80
6EC0
EEC0
EEC0
EEC0
EEC0
EEC0
E0C0
FFC0
FFC0
7FC0
3F80
ENDCHAR
STARTCHAR uni0200
ENCODING 512
SWIDTH 578 0
DWIDTH 10 0
BBX 10 17 0 0
BITMAP
3C00
7E00
6B00
3F00
3F00
3F80
60C0
EEC0
EEC0
EEC0
EEC0
EEC0
EEC0
FFC0
FFC0
7FC0
3F80
ENDCHAR
STARTCHAR uni0201
ENCODING 513
SWIDTH 578 0
DWIDTH 10 0
BBX 10 17 0 0
BITMAP
3C00
7E00
6B00
3F00
3F00
3F80
60C0
FEC0
FEC0
E0C0
EEC0
EEC0
E0C0
FFC0
FFC0
7FC0
3F80
ENDCHAR
STARTCHAR uni0202
ENCODING 514
SWIDTH 578 0
DWIDTH 10 0
BBX 10 17 0 0
BITMAP
0E00
3F80
3F80
3180
3F80
3F80
60C0
EEC0
EEC0
EEC0
EEC0
EEC0
EEC0
FFC0
FFC0
7FC0
3F80
ENDCHAR
STARTCHAR uni0203
ENCODING 515
SWIDTH 578 0
DWIDTH 10 0
BBX 10 17 0 0
BITMAP
0E00
3F80
3F80
3180
3F80
3F80
60C0
FEC0
FEC0
E0C0
EEC0
EEC0
E0C0
FFC0
FFC0
7FC0
3F80
ENDCHAR
STARTCHAR uni0204
ENCODING 516
SWIDTH 578 0
DWIDTH 10 0
BBX 10 17 0 0
BITMAP
3C00
7E00
6B00
3F00
3F00
3F80
70C0
FFC0
FFC0
F1C0
FFC0
FFC0
F0C0
FFC0
FFC0
7FC0
3F80
ENDCHAR
STARTCHAR uni0205
ENCODING 517
SWIDTH 578 0
DWIDTH 10 0
BBX 10 17 0 0
BITMAP
3C00
7E00
6B00
3F00
3F00
3F80
60C0
EEC0
E0C0
EFC0
EFC0
EFC0
E1C0
FFC0
FFC0
7FC0
3F80
ENDCHAR
STARTCHAR uni0206
ENCODING 518
SWIDTH 578 0
DWIDTH 10 0
BBX 10 17 0 0
BITMAP
0E00
3F80
3F80
3180
3F80
3F80
70C0
FFC0
FFC0
F1C0
FFC0
FFC0
F0C0
FFC0
FFC0
7FC0
3F80
ENDCHAR
STARTCHAR uni0207
ENCODING 519
SWIDTH 578 0
DWIDTH 10 0
BBX 10 17 0 0
BITMAP
0E00
3F80
3F80
3180
3F80
3F80
60C0
EEC0
E0C0
EFC0
EFC0
EFC0
E1C0
FFC0
FFC0
7FC0
3F80
ENDCHAR
STARTCHAR uni0208
ENCODING 520
SWIDTH 578 0
DWIDTH 10 0
BBX 10 17 0 0
BITMAP
3C00
7E00
6B00
3F00
3F00
3F80
60C0
FBC0
FBC0
FBC0
FBC0
FBC0
E0C0
FFC0
FFC0
7FC0
3F80
ENDCHAR
STARTCHAR uni0209
ENCODING 521
SWIDTH 578 0
DWIDTH 10 0
BBX 10 17 0 0
BITMAP
3C00
7E00
6B00
3F00
3F00
3F80
60C0
FBC0
FBC0
FBC0
FBC0
FBC0
E0C0
FFC0
FFC0
7FC0
3F80
ENDCHAR
STARTCHAR uni020A
ENCODING 522
SWIDTH 578 0
DWIDTH 10 0
BBX 10 17 0 0
BITMAP
0E00
3F80
3F80
3180
3F80
3F80
60C0
FBC0
FBC0
FBC0
FBC0
FBC0
E0C0
FFC0
FFC0
7FC0
3F80
ENDCHAR
STARTCHAR uni020B
ENCODING 523
SWIDTH 578 0
DWIDTH 10 0
BBX 10 17 0 0
BITMAP
0E00
3F80
3F80
3180
3F80
3F80
60C0
FBC0
FBC0
FBC0
FBC0
FBC0
E0C0
FFC0
FFC0
7FC0
3F80
ENDCHAR
STARTCHAR uni020C
ENCODING 524
SWIDTH 578 0
DWIDTH 10 0
BBX 10 17 0 0
BITMAP
3C00
7E00
6B00
3F00
3F00
3F80
60C0
EEC0
EEC0
EEC0
EEC0
EEC0
E0C0
FFC0
FFC0
7FC0
3F80
ENDCHAR
STARTCHAR uni020D
ENCODING 525
SWIDTH 578 0
DWIDTH 10 0
BBX 10 17 0 0
BITMAP
3C00
7E00
6B00
3F00
3F00
3F80
60C0
EEC0
EEC0
EEC0
EEC0
EEC0
E0C0
FFC0
FFC0
7FC0
3F80
ENDCHAR
STARTCHAR uni020E
ENCODING 526
SWIDTH 578 0
DWIDTH 10 0
BBX 10 17 0 0
BITMAP
0E00
3F80
3F80
3180
3F80
3F80
60C0
EEC0
EEC0
EEC0
EEC0
EEC0
E0C0
FFC0
FFC0
7FC0
3F80
ENDCHAR
STARTCHAR uni020F
ENCODING 527
SWIDTH 578 0
DWIDTH 10 0
BBX 10 17 0 0
BITMAP
0E00
3F80
3F80
3180
3F80
3F80
60C0
EEC0
EEC0
EEC0
EEC0
EEC0
E0C0
FFC0
FFC0
7FC0
3F80
ENDCHAR
STARTCHAR uni0210
ENCODING 528
SWIDTH 578 0
DWIDTH 10 0
BBX 10 17 0 0
BITMAP
3C00
7E00
6B00
3F00
3F00
3F80
60C0
EEC0
EEC0
E1C0
EEC0
EEC0
EEC0
FFC0
FFC0
7FC0
3F80
ENDCHAR
STARTCHAR uni0211
ENCODING 529
SWIDTH 578 0
DWIDTH 10 0
BBX 10 17 0 0
BITMAP
3C00
7E00
6B00
3F00
3F00
3F80
60C0
EEC0
EEC0
E1C0
EEC0
EEC0
EEC0
FFC0
FFC0
7FC0
3F80
ENDCHAR
STARTCHAR uni0212
ENCODING 530
SWIDTH 578 0
DWIDTH 10 0
BBX 10 17 0 0
BITMAP
0E00
3F80
3F80
3180
3F80
3F80
60C0
EEC0
EEC0
E1C0
EEC0
EEC0
EEC0
FFC0
FFC0
7FC0
3F80
ENDCHAR
STARTCHAR uni0213
ENCODING 531
SWIDTH 578 0
DWIDTH 10 0
BBX 10 17 0 0
BITMAP
0E00
3F80
3F80
3180
3F80
3F80
60C0
EEC0
EEC0
E1C0
EEC0
EEC0
EEC0
FFC0
FFC0
7FC0
3F80
ENDCHAR
STARTCHAR uni0214
ENCODING 532
SWIDTH 578 0
DWIDTH 10 0
BBX 10 17 0 0
BITMAP
3C00
7E00
6B00
3F00
3F00
3F80
6EC0
EEC0
EEC0
EEC0
EEC0
EEC0
E0C0
FFC0
FFC0
7FC0
3F80
ENDCHAR
STARTCHAR uni0215
ENCODING 533
SWIDTH 578 0
DWIDTH 10 0
BBX 10 17 0 0
BITMAP
3C00
7E00
6B00
3F00
3F00
3F80
6EC0
EEC0
EEC0
EEC0
EEC0
EEC0
E0C0
FFC0
FFC0
7FC0
3F80
ENDCHAR
STARTCHAR uni0216
ENCODING 534
SWIDTH 578 0
DWIDTH 10 0
BBX 10 17 0 0
BITMAP
0E00
3F80
3F80
3180
3F80
3F80
6EC0
EEC0
EEC0
EEC0
EEC0
EEC0
E0C0
FFC0
FFC0
7FC0
3F80
ENDCHAR
STARTCHAR uni0217
ENCODING 535
SWIDTH 578 0
DWIDTH 10 0
BBX 10 17 0 0
BITMAP
0E00
3F80
3F80
3180
3F80
3F80
6EC0
EEC0
EEC0
EEC0
EEC0
EEC0
E0C0
FFC0
FFC0
7FC0
3F80
ENDCHAR
STARTCHAR uni0218
ENCODING 536
SWIDTH 578 0
DWIDTH 10 0
BBX 10 12 0 0
BITMAP
3F80
60C0
EFC0
EFC0
F0C0
FEC0
FEC0
E0C0
FFC0
FFC0
7BC0
3F80
ENDCHAR
STARTCHAR uni0219
ENCODING 537
SWIDTH 578 0
DWIDTH 10 0
BBX 10 12 0 0
BITMAP
3F80
60C0
EFC0
EFC0
F0C0
FEC0
FEC0
E0C0
FFC0
FFC0
7BC0
3F80
ENDCHAR
STARTCHAR uni021A
ENCODING 538
SWIDTH 578 0
DWIDTH 10 0
BBX 10 12 0 0
BITMAP
3F80
60C0
FBC0
FBC0
FBC0
FBC0
FBC0
FBC0
FFC0
FBC0
7FC0
3F80
ENDCHAR
STARTCHAR uni021B
ENCODING 539
SWIDTH 578 0
DWIDTH 10 0
BBX 10 12 0 0
BITMAP
3F80
60C0
FBC0
FBC0
FBC0
FBC0
FBC0
FBC0
FFC0
FBC0
7FC0
3F80
ENDCHAR
STARTCHAR circumflex
ENCODING 710
SWIDTH 355 0
DWIDTH 6 0
BBX 6 6 0 0
BITMAP
78
6C
DC
DC
FC
FC
ENDCHAR
STARTCHAR caron
ENCODING 711
SWIDTH 355 0
DWIDTH 6 0
BBX 6 6 0 0
BITMAP
7C
FC
DC
DC
6C
78
ENDCHAR
STARTCHAR breve
ENCODING 728
SWIDTH 428 0
DWIDTH 8 0
BBX 8 5 0 0
BITMAP
7E
FE
DF
E7
7E
ENDCHAR
STARTCHAR dotaccent
ENCODING 729
SWIDTH 428 0
DWIDTH 8 0
BBX 8 5 0 0
BITMAP
7E
FE
EF
FF
7E
ENDCHAR
STARTCHAR ring
ENCODING 730
SWIDTH 368 0
DWIDTH 7 0
BBX 7 6 0 0
BITMAP
30
7C
C4
F6
CE
FC
ENDCHAR
STARTCHAR ogonek
ENCODING 731
SWIDTH 101 0
DWIDTH 2 0
BBX 2 3 0 -3
BITMAP
C0
80
C0
ENDCHAR
STARTCHAR tilde
ENCODING 732
SWIDTH 428 0
DWIDTH 8 0
BBX 8 6 0 0
BITMAP
3C
7E
FF
FF
D3
7E
ENDCHAR
STARTCHAR hungarumlaut
ENCODING 733
SWIDTH 419 0
DWIDTH 8 0
BBX 8 6 0 0
BITMAP
3E
7E
7F
D6
FC
F8
ENDCHAR
STARTCHAR uni030F
ENCODING 783
SWIDTH 419 0
DWIDTH 8 0
BBX 8 6 0 0
BITMAP
7C
FC
D6
7E
7F
3E
ENDCHAR
STARTCHAR mu
ENCODING 956
SWIDTH 578 0
DWIDTH 10 0
BBX 10 12 0 0
BITMAP
3F80
6EC0
EEC0
EEC0
EEC0
EEC0
EEC0
E0C0
EFC0
FFC0
7FC0
3F80
ENDCHAR
STARTCHAR pi
ENCODING 960
SWIDTH 578 0
DWIDTH 10 0
BBX 10 12 0 0
BITMAP
3F80
6EC0
D140
BDC0
BDC0
BFC0
EFC0
DF40
E1C0
FFC0
7FC0
3F80
ENDCHAR
STARTCHAR uni1E60
ENCODING 7776
SWIDTH 578 0
DWIDTH 10 0
BBX 10 16 0 0
BITMAP
1F00
3F80
3BC0
3FC0
3F80
60C0
EFC0
EFC0
F0C0
FEC0
FEC0
E0C0
FFC0
FFC0
7FC0
3F80
ENDCHAR
STARTCHAR uni1E8E
ENCODING 7822
SWIDTH 578 0
DWIDTH 10 0
BBX 10 16 0 0
BITMAP
1F00
3F80
3BC0
3F80
3F80
6EC0
F4C0
F5C0
FDC0
FBC0
FBC0
FBC0
FFC0
FFC0
7FC0
3F80
ENDCHAR
STARTCHAR uni1E8F
ENCODING 7823
SWIDTH 578 0
DWIDTH 10 0
BBX 10 16 0 0
BITMAP
1F00
3F80
3BC0
3F80
3F80
6EC0
F4C0
F5C0
FDC0
FBC0
FBC0
FBC0
FFC0
FFC0
7FC0
3F80
ENDCHAR
STARTCHAR uni1EBC
ENCODING 7868
SWIDTH 578 0
DWIDTH 10 0
BBX 10 18 0 0
BITMAP
0E00
1F80
3F80
3FC0
3980
3F80
3F80
70C0
FFC0
FFC0
F1C0
FFC0
FFC0
F0C0
FFC0
FFC0
7FC0
3F80
ENDCHAR
STARTCHAR uni1EF8
ENCODING 7928
SWIDTH 578 0
DWIDTH 10 0
BBX 10 18 0 0
BITMAP
0E00
3F80
3F80
3FC0
3980
3F80
3F80
6EC0
F4C0
F5C0
FDC0
FBC0
FBC0
FBC0
FFC0
FFC0
7FC0
3F80
ENDCHAR
STARTCHAR uni1EF9
ENCODING 7929
SWIDTH 578 0
DWIDTH 10 0
BBX 10 18 0 0
BITMAP
0E00
3F80
3F80
3FC0
3980
3F80
3F80
6EC0
F4C0
F5C0
FDC0
FBC0
FBC0
FBC0
FFC0
FFC0
7FC0
3F80
ENDCHAR
STARTCHAR endash
ENCODING 8211
SWIDTH 428 0
DWIDTH 8 0
BBX 8 12 0 0
BITMAP
3C
7E
FF
C3
FF
FF
FF
FF
FF
FF
7E
3C
ENDCHAR
STARTCHAR emdash
ENCODING 8212
SWIDTH 428 0
DWIDTH 8 0
BBX 8 12 0 0
BITMAP
3C
7E
FF
00
FF
FF
FF
FF
FF
FF
7E
3C
ENDCHAR
STARTCHAR quoteleft
ENCODING 8216
SWIDTH 428 0
DWIDTH 8 0
BBX 8 12 0 0
BITMAP
3C
6E
E7
FF
FF
FF
FF
FF
FF
FF
7E
3C
ENDCHAR
STARTCHAR quoteright
ENCODING 8217
SWIDTH 428 0
DWIDTH 8 0
BBX 8 12 0 0
BITMAP
3C
66
FF
FF
FF
FF
FF
FF
FF
FF
7E
3C
ENDCHAR
STARTCHAR quotesinglbase
ENCODING 8218
SWIDTH 428 0
DWIDTH 8 0
BBX 8 12 0 0
BITMAP
3C
7E
FF
FF
FF
FF
FF
E7
FF
FF
7E
3C
ENDCHAR
STARTCHAR quotedblleft
ENCODING 8220
SWIDTH 428 0
DWIDTH 8 0
BBX 8 12 0 0
BITMAP
3C
76
D7
FF
FF
FF
FF
FF
FF
FF
7E
3C
ENDCHAR
STARTCHAR quotedblright
ENCODING 8221
SWIDTH 428 0
DWIDTH 8 0
BBX 8 12 0 0
BITMAP
3C
6A
EF
FF
FF
FF
FF
FF
FF
FF
7E
3C
ENDCHAR
STARTCHAR quotedblbase
ENCODING 8222
SWIDTH 428 0
DWIDTH 8 0
BBX 8 12 0 0
BITMAP
3C
7E
FF
FF
FF
FF
FF
EB
EF
FF
7E
3C
ENDCHAR
STARTCHAR dagger
ENCODING 8224
SWIDTH 578 0
DWIDTH 10 0
BBX 10 12 0 0
BITMAP
3F80
7BC0
F1C0
FBC0
FBC0
FBC0
FBC0
FBC0
FFC0
FFC0
7FC0
3F80
ENDCHAR
STARTCHAR daggerdbl
ENCODING 8225
SWIDTH 578 0
DWIDTH 10 0
BBX 10 12 0 0
BITMAP
3F80
7BC0
F1C0
FBC0
FBC0
FBC0
F1C0
FBC0
FFC0
FFC0
7FC0
3F80
ENDCHAR
STARTCHAR bullet
ENCODING 8226
SWIDTH 578 0
DWIDTH 10 0
BBX 10 12 0 0
BITMAP
3F80
7FC0
E0C0
E0C0
E0C0
E0C0
E0C0
F1C0
FFC0
FFC0
7FC0
3F80
ENDCHAR
STARTCHAR ellipsis
ENCODING 8230
SWIDTH 578 0
DWIDTH 10 0
BBX 10 12 0 0
BITMAP
3F80
7FC0
FFC0
FFC0
FFC0
FFC0
FFC0
DAC0
FFC0
FFC0
7FC0
3F80
ENDCHAR
STARTCHAR perthousand
ENCODING 8240
SWIDTH 640 0
DWIDTH 12 0
BBX 12 12 0 0
BITMAP
7FC0
9BE0
B7E0
97F0
F7F0
E910
EAD0
E990
FFF0
FFE0
7FE0
3FC0
ENDCHAR
STARTCHAR guilsinglleft
ENCODING 8249
SWIDTH 578 0
DWIDTH 10 0
BBX 10 12 0 0
BITMAP
3F80
7DC0
FDC0
FBC0
F7C0
F7C0
FBC0
FDC0
FFC0
FFC0
7FC0
3F80
ENDCHAR
STARTCHAR guilsinglright
ENCODING 8250
SWIDTH 578 0
DWIDTH 10 0
BBX 10 12 0 0
BITMAP
3F80
7FC0
F7C0
FBC0
FDC0
FDC0
FBC0
F7C0
FFC0
FFC0
7FC0
3F80
ENDCHAR
STARTCHAR fraction
ENCODING 8260
SWIDTH 428 0
DWIDTH 8 0
BBX 8 12 0 0
BITMAP
3C
76
F7
FF
EF
EF
EF
EF
FF
FF
7E
3C
ENDCHAR
STARTCHAR Euro
ENCODING 8364
SWIDTH 578 0
DWIDTH 10 0
BBX 10 12 0 0
BITMAP
3F80
61C0
EFC0
C3C0
EFC0
C3C0
EFC0
E1C0
FFC0
FFC0
7FC0
3F80
ENDCHAR
STARTCHAR trademark
ENCODING 8482
SWIDTH 578 0
DWIDTH 10 0
BBX 10 12 0 0
BITMAP
3F80
7FC0
FFC0
FFC0
EAC0
EEC0
FFC0
FFC0
FFC0
FFC0
7FC0
3F80
ENDCHAR
STARTCHAR product
ENCODING 8719
SWIDTH 578 0
DWIDTH 10 0
BBX 10 12 0 0
BITMAP
3F80
6EC0
D140
B7C0
B7C0
B1C0
F7C0
DF40
E1C0
FFC0
7FC0
3F80
ENDCHAR
STARTCHAR minus
ENCODING 8722
SWIDTH 428 0
DWIDTH 8 0
BBX 8 12 0 0
BITMAP
3C
7E
FF
C3
FF
FF
FF
FF
FF
FF
7E
3C
ENDCHAR
STARTCHAR notequal
ENCODING 8800
SWIDTH 578 0
DWIDTH 10 0
BBX 10 12 0 0
BITMAP
3F80
7DC0
FBC0
FBC0
E0C0
F7C0
FFC0
FFC0
FFC0
FFC0
7FC0
3F80
ENDCHAR
STARTCHAR uni2706
ENCODING 9990
SWIDTH 578 0
DWIDTH 10 0
BBX 10 12 0 0
BITMAP
3F80
7DC0
FFC0
FDC0
EFC0
EFC0
F7C0
F3C0
FDC0
FFC0
7FC0
3F80
ENDCHAR
STARTCHAR uni2708
ENCODING 9992
SWIDTH 578 0
DWIDTH 10 0
BBX 10 12 0 0
BITMAP
7F80
8E40
8440
B540
8E40
8440
8440
8440
8040
8440
8C40
7F80
ENDCHAR
STARTCHAR uniF6D6
ENCODING 63190
SWIDTH 419 0
DWIDTH 8 0
BBX 8 6 0 0
BITMAP
7C
FC
D6
7E
7F
3E
ENDCHAR
STARTCHAR uFFFF2
ENCODING 1048562
SWIDTH 578 0
DWIDTH 10 0
BBX 10 12 0 0
BITMAP
7F80
8440
8440
8440
8E40
B540
8440
8E40
8040
8440
8C40
7F80
ENDCHAR
STARTCHAR uFFFF3
ENCODING 1048563
SWIDTH 578 0
DWIDTH 10 0
BBX 10 12 0 0
BITMAP
7F80
8440
8640
9D40
8640
8E40
9D40
8640
8440
8040
8040
7F80
ENDCHAR
STARTCHAR uFFFF4
ENCODING 1048564
SWIDTH 578 0
DWIDTH 10 0
BBX 10 12 0 0
BITMAP
3F80
7BC0
FBC0
EAC0
FBC0
FFC0
EEC0
F1C0
FFC0
FFC0
7FC0
3F80
ENDCHAR
STARTCHAR uFFFF5
ENCODING 1048565
SWIDTH 578 0
DWIDTH 10 0
BBX 10 12 0 0
BITMAP
3F80
73C0
FBC0
EAC0
F1C0
FBC0
FBC0
FBC0
FFC0
FBC0
7BC0
3F80
ENDCHAR
STARTCHAR uFFFF6
ENCODING 1048566
SWIDTH 578 0
DWIDTH 10 0
BBX 10 12 0 0
BITMAP
3F80
7BC0
FBC0
FBC0
F1C0
EAC0
FBC0
F3C0
FFC0
FBC0
7BC0
3F80
ENDCHAR
STARTCHAR uFFFF8
ENCODING 1048568
SWIDTH 578 0
DWIDTH 10 0
BBX 10 12 0 0
BITMAP
3F80
7BC0
FDC0
F7C0
EBC0
FAC0
E0C0
E1C0
F7C0
FBC0
73C0
3F80
ENDCHAR
STARTCHAR uFFFF9
ENCODING 1048569
SWIDTH 578 0
DWIDTH 10 0
BBX 10 12 0 0
BITMAP
7F80
8440
8E40
9540
9540
9140
9140
8E40
8040
8040
8040
7F80
ENDCHAR
STARTCHAR uFFFFB
ENCODING 1048571
SWIDTH 578 0
DWIDTH 10 0
BBX 10 12 0 0
BITMAP
3F80
7BC0
EDC0
FDC0
FBC0
F1C0
EDC0
FBC0
FFC0
FFC0
7FC0
3F80
ENDCHAR
STARTCHAR uFFFFC
ENCODING 1048572
SWIDTH 578 0
DWIDTH 10 0
BBX 10 12 0 0
BITMAP
3F80
61C0
DF40
EEC0
F1C0
FFC0
FBC0
FFC0
FFC0
FFC0
7FC0
3F80
ENDCHAR
STARTCHAR uFFFFD
ENCODING 1048573
SWIDTH 578 0
DWIDTH 10 0
BBX 10 12 0 0
BITMAP
3F80
73C0
E0C0
E0C0
FAC0
EBC0
F7C0
FDC0
FFC0
FBC0
73C0
3F80
ENDCHAR
STARTCHAR uFFFFE
ENCODING 1048574
SWIDTH 578 0
DWIDTH 10 0
BBX 10 12 0 0
BITMAP
3F80
44C0
F740
F740
F740
F740
C440
FFC0
FFC0
FFC0
7FC0
3F80
ENDCHAR
STARTCHAR uFFFFF
ENCODING 1048575
SWIDTH 578 0
DWIDTH 10 0
BBX 10 12 0 0
BITMAP
7F80
8C40
9F40
9F40
9540
9540
8E40
8A40
8440
8440
8C40
7F80
ENDCHAR
STARTCHAR .notdef
ENCODING -1
SWIDTH 1000 0
DWIDTH 18 0
BBX 1 1 0 0
BITMAP
00
ENDCHAR
STARTCHAR glyph1
ENCODING -1
SWIDTH 0 0
DWIDTH 0 0
BBX 1 1 0 0
BITMAP
00
ENDCHAR
ENDFONT
